<svg width="603" height="836" viewBox="0 0 603 836" fill="none" xmlns="http://www.w3.org/2000/svg">
<path d="M196.111 20.187C275.711 -17.213 387.711 0.386951 462.511 48.087C519.111 84.087 573.311 143.487 594.311 225.087C597.611 238.187 599.811 251.787 601.911 265.387C606.011 337.387 595.111 397.787 558.911 453.387C543.211 477.587 524.811 497.387 504.611 514.487C486.711 529.587 453.411 544.087 441.811 566.087C427.511 593.187 421.811 629.187 410.611 658.787C390.611 660.087 370.111 660.487 350.011 659.287L345.111 659.887C315.111 658.187 284.811 660.187 254.811 659.287H252.011C231.811 660.587 211.411 659.787 191.211 659.687C181.211 630.087 175.511 595.587 162.011 568.387C149.911 544.087 107.611 524.687 87.3113 506.787C70.8113 492.087 56.7112 473.587 42.9112 454.687C33.6112 437.687 24.7113 420.387 17.7113 401.387C-2.78871 345.087 -5.58873 286.087 9.81126 226.987C30.1113 148.787 80.6113 87.887 135.511 52.687C150.411 38.387 178.311 27.887 196.111 20.187Z" fill="#FEDB73"/>
<path d="M191.412 77.687L196.512 78.887C192.512 84.387 186.812 87.787 182.012 92.387C170.612 103.287 159.212 114.387 148.712 126.887C119.712 161.587 93.9116 204.587 76.7116 251.287C69.7116 270.287 64.6116 290.387 57.3116 309.087C48.7116 254.587 49.9115 228.487 70.4115 179.087C101.112 124.587 144.212 99.087 191.412 77.687Z" fill="#FEFEFE"/>
<path d="M374.612 395.787C382.712 371.287 393.311 343.287 413.211 332.987C420.711 329.087 429.311 328.487 436.711 332.787C442.811 336.387 447.211 342.087 449.411 350.487C451.311 357.787 449.811 365.987 446.811 372.287C438.711 388.787 421.711 395.387 407.911 398.587C398.711 400.687 389.211 401.787 379.811 402.287C356.311 480.387 349.912 575.487 350.012 659.287L345.112 659.887C343.412 587.587 350.411 468.987 372.311 403.187C348.811 400.987 323.111 398.887 301.411 385.787C280.211 400.487 253.312 401.487 230.012 401.687C234.612 415.787 237.811 430.787 241.311 445.387C244.611 465.387 247.312 485.287 249.612 505.487C250.912 533.187 259.211 641.487 254.811 659.287H252.012C244.412 572.487 249.211 484.287 223.911 401.587C202.811 400.187 171.012 398.987 155.512 376.687C151.612 370.987 149.111 363.887 149.311 356.087C149.511 349.287 152.011 342.987 155.811 338.487C161.911 331.087 170.612 328.587 178.612 329.487C192.312 331.087 202.812 342.787 211.012 356.487C217.912 367.987 223.311 381.887 227.911 395.187C250.811 394.087 273.711 392.787 295.311 382.087C289.011 374.187 282.812 366.087 282.212 353.787C281.912 348.287 283.712 342.887 286.712 339.087C290.912 333.887 297.211 331.487 302.911 331.987C308.211 332.387 314.112 335.487 317.112 341.687C319.412 346.387 319.511 352.187 318.411 357.487C316.211 367.187 311.011 375.387 305.811 382.387C328.411 390.187 351.112 395.687 374.612 395.787Z" fill="#FEFEFE"/>
<path d="M296.512 336.887C299.112 336.987 302.612 336.787 305.112 338.087C308.812 339.887 309.611 343.187 311.211 347.387C311.311 359.987 307.711 366.787 301.911 376.387C299.011 375.987 296.611 374.687 294.411 372.187C290.911 368.087 289.612 363.487 289.612 357.487C289.512 348.087 291.812 343.587 296.512 336.887Z" fill="#FECD73"/>
<path d="M420.012 335.587C426.912 335.087 433.812 337.087 439.812 341.987C440.078 342.187 440.345 342.42 440.612 342.687C440.878 343.02 441.145 343.354 441.412 343.687C441.678 343.954 441.912 344.287 442.112 344.687C442.378 345.02 442.612 345.387 442.812 345.787C443.012 346.187 443.178 346.587 443.312 346.987C443.512 347.387 443.678 347.787 443.812 348.187C443.945 348.654 444.045 349.12 444.112 349.587C444.178 349.987 444.245 350.42 444.312 350.887C445.012 356.187 443.412 361.687 441.312 366.087C433.312 382.887 421.412 387.387 407.712 391.387C399.212 393.187 390.512 394.287 381.912 395.587C391.212 369.587 399.512 348.487 420.012 335.587Z" fill="#FECD73"/>
<path d="M171.612 335.687C175.812 335.287 179.812 335.087 183.912 336.687C202.812 343.887 212.912 373.887 221.912 394.987C215.612 394.887 209.212 393.887 202.812 393.287C188.112 390.987 167.612 386.487 158.112 369.787C155.812 365.687 154.412 361.487 155.212 356.187C156.812 346.287 165.512 339.987 171.612 335.687Z" fill="#FECD73"/>
<path d="M301.411 385.787C323.111 398.887 348.811 400.987 372.311 403.187C350.411 468.987 343.411 587.587 345.111 659.887C315.111 658.187 284.811 660.187 254.811 659.287C259.211 641.487 250.911 533.187 249.611 505.487C247.311 485.287 244.611 465.387 241.311 445.387C237.811 430.787 234.611 415.787 230.011 401.687C253.311 401.487 280.211 400.487 301.411 385.787Z" fill="#FECD73"/>
<path d="M249.912 810.087C255.512 806.787 344.212 807.487 353.412 810.687C342.012 823.687 325.212 832.088 310.412 834.388C287.612 837.888 267.412 829.287 249.912 810.087Z" fill="#505458"/>
<path d="M192.512 766.887C203.012 772.687 383.911 771.587 409.711 769.687C411.611 777.887 412.111 786.887 409.311 794.887C407.011 801.487 402.011 804.987 396.911 806.587C386.511 809.787 360.011 805.387 353.411 810.687C344.211 807.487 255.511 806.787 249.911 810.087C242.811 803.887 223.511 808.187 214.711 807.787C207.511 807.487 199.511 806.487 194.811 798.287C189.811 789.587 191.012 776.787 192.512 766.887Z" fill="#9FAFBD"/>
<path d="M179.911 718.086C201.211 722.686 225.411 719.886 247.111 719.786L365.411 719.286C384.311 719.186 403.911 717.886 422.811 719.086C428.911 728.386 431.411 734.786 433.111 746.786C428.411 758.486 424.011 764.186 414.311 768.086C412.811 768.686 411.311 769.186 409.711 769.686C383.911 771.586 203.011 772.686 192.511 766.886C186.711 765.786 181.511 764.686 176.911 759.486C173.011 755.186 170.711 749.186 170.611 742.386C170.611 731.786 174.711 725.486 179.911 718.086Z" fill="#9FAFBD"/>
<path d="M192.511 766.886L194.711 764.186C263.011 750.686 365.111 736.586 433.111 746.786C428.411 758.486 424.011 764.186 414.311 768.086C412.811 768.686 411.311 769.186 409.711 769.686C383.911 771.586 203.011 772.686 192.511 766.886Z" fill="#798FA2"/>
<path d="M410.611 658.787C421.511 661.987 430.911 665.887 437.311 679.387C440.011 684.987 441.011 690.987 439.811 697.487C438.111 706.687 432.111 712.487 426.211 716.787C425.078 717.587 423.945 718.354 422.811 719.087C403.911 717.787 384.311 719.187 365.411 719.287L247.111 719.787C225.411 719.887 201.211 722.687 179.911 718.087C173.111 713.187 166.511 708.387 164.111 697.887C162.611 691.387 163.411 684.687 166.011 678.887C171.611 666.687 181.311 662.287 191.211 659.687C211.411 659.787 231.811 660.587 252.011 659.287H254.811C284.811 660.187 315.111 658.187 345.111 659.887L350.011 659.287C370.111 660.487 390.611 660.087 410.611 658.787Z" fill="#798FA2"/>
</svg>
