<svg width="4096" height="3072" viewBox="0 0 4096 3072" fill="none" xmlns="http://www.w3.org/2000/svg">
<path d="M1801.39 807.194C1790 792.749 1773.42 784.953 1758.22 780.903C1464.53 702.057 1112.97 1079.64 886.386 993.371C846.042 978.009 809.136 951.183 770.167 931.235C696.203 893.48 621.551 873.227 542.391 889.2C517.558 894.168 492.419 901.887 470.184 918.09C456.277 928.331 443.059 942.929 438.321 964.023C436.258 973.118 435.952 982.748 439.544 991.231C445.809 1005.91 459.716 1013.39 471.559 1017.14C497.92 1025.47 528.179 1024.02 555.304 1024.4L683.672 1025.7C723.099 1026.39 766.652 1024.48 805.086 1037.32C826.863 1044.65 851.008 1058.72 863.31 1085.16C868.582 1096.55 870.263 1109.08 867.818 1122C864.915 1137.51 855.211 1148.75 845.201 1156.31C812.727 1180.85 748.62 1177.56 711.103 1179.4C670.758 1181.23 630.44 1183.5 590.147 1186.2C544.301 1189.56 390.565 1193.46 373.832 1265.07C371.616 1274.47 371.692 1283.57 375.513 1292.2C383.383 1310.16 401.186 1318.42 415.704 1322.85C444.281 1331.64 475.15 1330.8 504.339 1331.94C564.397 1334.24 722.488 1332.86 769.174 1369.47C775.363 1374.29 781.017 1381.55 784.914 1389.57C785.22 1390.23 785.525 1390.92 785.831 1391.63C786.137 1392.35 786.417 1393.06 786.672 1393.77L787.436 1395.91C787.69 1396.68 787.919 1397.42 788.123 1398.13L788.735 1400.42C788.938 1401.19 789.117 1401.98 789.269 1402.79C789.422 1403.56 789.55 1404.32 789.651 1405.09C789.804 1405.9 789.932 1406.69 790.033 1407.45C790.084 1408.27 790.161 1409.06 790.263 1409.82L790.416 1412.27V1414.64V1417.08C790.365 1417.9 790.314 1418.69 790.263 1419.45C790.212 1420.27 790.135 1421.08 790.033 1421.9C789.932 1422.66 789.83 1423.45 789.728 1424.27L789.269 1426.56C786.289 1442.61 776.738 1454.08 766.27 1461.95C737.158 1483.73 697.655 1480.29 665.257 1480.14L542.391 1478.76C516.794 1478.69 490.356 1477 464.988 1482.12C442.371 1486.71 416.315 1495.27 399.047 1516.75C393.698 1523.47 388.502 1531.65 386.439 1541.28C385.369 1546.17 384.987 1551.75 386.668 1556.41C389.954 1565.51 398.741 1569.56 405.465 1571.77C438.55 1582.4 491.961 1565.97 513.89 1610.98C519.392 1622.29 519.926 1635.9 517.787 1648.81C515.189 1664.33 508.312 1675.26 498.303 1683.51C442.294 1729.75 346.554 1643.23 282.905 1697.88C267.317 1711.33 258.148 1731.05 253.487 1754.74C249.208 1776.37 254.709 1800.6 263.038 1819.4C285.884 1871.37 335.016 1896.36 376.582 1910.42C455.743 1937.25 546.211 1934.65 627.74 1936.56C710.134 1938.59 779.366 1965.95 822.813 2000.61C831.829 2007.87 839.852 2017.73 847.111 2027.89C931.285 2145.17 1001.05 2247.08 1152.5 2293.5C1429.96 2378.65 2034.46 2185.93 2178.47 1948.48C2209.87 1896.82 2231.57 1824.98 2225.92 1757.72C2221.94 1709.57 2201.47 1670.21 2163.95 1661.12C2148.67 1657.45 1930.51 1395.61 1915 1395.91C1736.06 1398.43 1479.69 1407.45 1479.5 1283C1479.42 1232.79 1535 1156.31 1695.48 1155.32C1724.53 1155.14 1753.48 1149.74 1781.98 1149.36L1960.85 1147.37C2009.45 1146.38 2061.03 1147.07 2108.63 1133.23C2125.75 1128.34 2145.15 1120.32 2157.61 1102.97C2163.03 1095.33 2166.47 1085.7 2166.09 1075C2162.65 985.805 1945.27 997.192 1899.27 997.192C1849.55 996.938 1799.83 997.498 1750.12 998.874C1729.03 999.409 1705.8 1002.54 1684.94 998.339C1670.19 995.358 1654.76 987.486 1643.91 973.423C1637.49 964.94 1632.98 953.782 1633.13 941.477C1633.29 928.408 1638.71 917.249 1645.51 908.307C1688.15 851.827 1773.88 900.359 1806.58 857.33C1810.48 852.209 1812.62 845.637 1812.47 838.223C1812.24 826.301 1807.81 815.295 1801.39 807.194Z" fill="#FEFEFE"/>
<path d="M1725.7 2472.91C1704 2458.31 1679.7 2447.81 1657.3 2434.91C1599.5 2401.61 1542 2362.71 1491.5 2312.21C1468.8 2289.51 1416.1 2234.51 1413.1 2196.01C1412.6 2189.41 1414 2183.01 1417.3 2178.01C1422.9 2169.51 1431.5 2166.21 1439.6 2165.31C1530.1 2154.91 1705 2295.81 1773.1 2370.21C1778.8 2415.81 1791.9 2453.81 1816.7 2486.31C1789 2486.21 1760.4 2489.51 1732.8 2486.31C1738.3 2486.11 1744.1 2486.71 1749.4 2484.41C1742.5 2478.41 1733.5 2476.11 1725.7 2472.91Z" fill="#E071A3"/>
<path d="M1604.2 1693.81C1640.2 1694.61 1671.5 1732.41 1695 1765.21C1700.26 1772.47 1705.33 1779.94 1710.2 1787.61C1715.13 1795.21 1719.9 1803.01 1724.5 1811.01C1729.1 1819.01 1733.53 1827.14 1737.8 1835.41C1742 1843.74 1746.06 1852.21 1750 1860.81C1757.8 1877.71 1764.7 1895.71 1772.8 1912.21C1783.7 1942.61 1795.9 1971.81 1805.2 2003.21C1801.7 2035.81 1793.7 2067.81 1788.7 2100.01C1778.3 2166.71 1771.6 2235.71 1770.6 2303.81C1761.3 2288.81 1753.3 2271.31 1745 2255.31C1720.4 2207.61 1697.2 2158.01 1674.9 2108.31C1637.2 2024.01 1561.1 1830.91 1581.3 1732.91C1585.3 1713.61 1591.6 1703.71 1604.2 1693.81Z" fill="#E071A3"/>
<path d="M3682.9 2099.81C3717.8 2076.41 3777.6 2039.41 3817.6 2056.41C3818.8 2056.91 3820 2057.51 3821.3 2058.11C3829.6 2069.41 3833.1 2079.01 3833.1 2095.11C3833.1 2116.31 3826.6 2137.41 3820.3 2156.51L3817.3 2167.71C3803.2 2199.11 3788.9 2228.31 3771.8 2257.01C3768.9 2261.11 3765.7 2265.01 3763.5 2269.91C3750.7 2287.91 3737.8 2305.71 3724.1 2322.51C3715.1 2333.61 3702 2345.71 3694.6 2358.41C3684.2 2369.14 3673.97 2380.11 3663.9 2391.31C3653.8 2400.61 3617 2432.81 3610.6 2442.71C3608.2 2444.71 3605.4 2446.51 3603.4 2449.11C3590.5 2459.91 3573.7 2471.01 3562.4 2484.51C3567.7 2485.51 3572.7 2486.11 3578 2486.31C3558.7 2488.51 3539 2487.31 3519.6 2487.91C3525.3 2477.81 3529.1 2468.01 3530.8 2455.61C3538.4 2402.51 3497.5 2334.51 3475.8 2293.01C3510.2 2254.81 3544.5 2218.01 3579.8 2181.41C3614 2154.01 3646.3 2121.81 3682.9 2099.71V2099.81Z" fill="#E071A3"/>
<path d="M3525.1 1798.41C3556.1 1748.21 3614 1635.21 3665.6 1630.41C3672.8 1629.71 3679.4 1632.41 3684.8 1638.81C3695.4 1651.61 3697.9 1672.21 3698.1 1690.31C3699.8 1819.91 3608.9 2033.41 3555.6 2140.11C3542 2167.21 3527.2 2193.41 3512.8 2219.81C3507.1 2230.31 3500.2 2241.11 3495.3 2252.41C3488.1 2264.11 3480.8 2275.81 3473.9 2287.91C3457.4 2260.71 3443.5 2227.11 3429.2 2197.51C3422.1 2182.31 3414.8 2167.01 3406.3 2153.21C3420.1 2145.27 3433.97 2137.51 3447.9 2129.91C3435.8 2113.71 3413.6 2087.61 3405.4 2068.21C3402.9 2062.11 3404.2 2060.11 3405.7 2054.11C3411.2 2047.51 3414.8 2033.11 3418 2024.31C3435.7 1989.81 3450.8 1951.21 3467.2 1915.41C3485.6 1875.51 3505.7 1837.41 3525.1 1798.41Z" fill="#E071A3"/>
<path d="M3176.3 2284.61C3253.5 2242.41 3328.7 2194.31 3406.2 2153.31C3414.8 2167.01 3422.1 2182.31 3429.2 2197.51C3443.5 2227.11 3457.4 2260.71 3473.9 2287.91L3475.8 2293.01C3497.5 2334.51 3538.4 2402.51 3530.8 2455.61C3529.1 2468.01 3525.3 2477.81 3519.6 2487.91C3539 2487.31 3558.7 2488.51 3578 2486.31C3673.1 2486.21 3679.1 2493.91 3756.5 2562.11C3780.5 2583.31 3806.5 2603.31 3829 2627.21C3836.6 2635.21 3843.6 2643.21 3844.3 2656.91C3844.7 2664.51 3842.3 2671.41 3838.6 2676.81C3828.8 2691.41 3813.1 2694.91 3799.2 2695.91C3765.6 2698.31 3731 2696.01 3697.3 2695.81H3520.7L2927.9 2696.01L1964.3 2695.81H1633.8C1579.9 2695.81 1525.8 2697.41 1471.9 2696.11C1459.5 2695.81 1445.3 2695.21 1433.8 2688.61C1429.7 2686.31 1425.9 2683.21 1422.6 2679.11C1418.5 2674.01 1415.4 2666.81 1415.5 2659.11C1415.5 2649.11 1419.3 2641.21 1424.6 2634.41C1443.4 2609.91 1472.2 2589.11 1494.3 2569.41C1517.3 2548.91 1540.4 2526.31 1565.3 2510.01C1615.4 2477.21 1678.4 2486.21 1732.8 2486.31C1760.4 2489.51 1789 2486.21 1816.7 2486.31C1822.8 2491.01 1828.5 2498.71 1834.1 2504.51C1835.03 2505.51 1836 2506.47 1837 2507.41C1838 2508.41 1839.03 2509.34 1840.1 2510.21C1841.1 2511.14 1842.1 2512.04 1843.1 2512.91C1844.17 2513.77 1845.23 2514.61 1846.3 2515.41C1847.37 2516.27 1848.43 2517.11 1849.5 2517.91C1850.57 2518.64 1851.67 2519.37 1852.8 2520.11C1853.87 2520.84 1854.97 2521.54 1856.1 2522.21C1857.23 2522.87 1858.37 2523.54 1859.5 2524.21C1860.63 2524.81 1861.77 2525.41 1862.9 2526.01C1864.03 2526.61 1865.2 2527.17 1866.4 2527.71C1867.53 2528.24 1868.7 2528.74 1869.9 2529.21C1871.03 2529.67 1872.2 2530.11 1873.4 2530.51C1874.6 2530.97 1875.8 2531.41 1877 2531.81C1878.2 2532.14 1879.4 2532.47 1880.6 2532.81C1881.8 2533.14 1883 2533.44 1884.2 2533.71C1885.4 2533.97 1886.6 2534.21 1887.8 2534.41C1928.3 2542.01 1962.8 2516.31 1994.1 2485.11C2002.5 2475.71 2010.9 2465.41 2020.3 2457.71C2022.3 2464.11 2024.7 2470.71 2025.6 2477.61L2028.4 2485.81L2278.9 2486.21C2281.6 2488.21 2596.2 2486.21 2632.9 2486.81C2618.4 2495.21 2588.4 2513.21 2582.6 2534.31C2580.7 2541.31 2579.7 2551.61 2582 2558.71C2582.2 2559.41 2582.5 2560.01 2582.8 2560.71L2585.2 2561.61L2586.7 2559.71C2586.3 2551.81 2585.4 2544.01 2588.1 2536.61C2595.8 2515.51 2619.7 2502.71 2635.4 2494.91C2653.3 2479.01 2680.7 2470.71 2701.4 2462.11C2738.4 2445.31 2764.7 2445.21 2802.3 2459.11C2822 2461.41 2843.4 2469.91 2861.9 2479.01C2883.5 2468.01 2906.7 2460.41 2928.9 2451.91C2965.1 2437.97 3001.57 2425.34 3038.3 2414.01C3075.03 2402.74 3111.93 2392.81 3149 2384.21C3154.3 2383.51 3160.1 2383.41 3164.9 2380.31C3166.43 2352.17 3168.2 2324.07 3170.2 2296.01L3170 2288.71L3176.3 2284.61Z" fill="#3C3B8C"/>
<path d="M2020.3 2457.71C2022.3 2464.11 2024.7 2470.71 2025.6 2477.61L2028.4 2485.81C2017 2485.74 2005.57 2485.51 1994.1 2485.11C2002.5 2475.71 2010.9 2465.41 2020.3 2457.71Z" fill="#798FA2"/>
<path d="M3176.3 2284.61C3253.5 2242.41 3328.7 2194.31 3406.2 2153.31C3414.8 2167.01 3422.1 2182.31 3429.2 2197.51C3443.5 2227.11 3457.4 2260.71 3473.9 2287.91L3475.8 2293.01C3497.5 2334.51 3538.4 2402.51 3530.8 2455.61C3529.1 2468.01 3525.3 2477.81 3519.6 2487.91C3480.2 2538.91 3371 2567.11 3316 2573.91C3308 2575.71 3300.1 2577.41 3292.1 2578.31C3285.2 2579.71 3278.1 2581.81 3271.2 2581.71C3238.7 2589.01 3174.1 2599.41 3141.7 2598.21C3089.3 2607.11 3026.7 2606.81 2973.4 2607.01C2954.4 2607.01 2923.5 2603.11 2905.6 2607.01C2900.7 2608.11 2895.7 2611.71 2891.2 2614.31C2863.5 2630.41 2821.8 2636.21 2792.8 2623.91C2765.5 2634.81 2735.2 2650.61 2707.1 2655.51C2691.8 2661.81 2676 2664.41 2661.5 2654.21C2653.3 2640.31 2646.1 2642.71 2637.3 2633.11L2630.8 2624.31C2628.5 2617.41 2628.3 2614.51 2623.3 2610.51L2619 2607.81C2611.3 2602.71 2607.1 2597.61 2604.1 2586.71C2603.3 2583.81 2602.7 2581.61 2601.5 2578.91C2601.2 2578.21 2600.9 2577.61 2600.6 2576.91C2595.7 2572.81 2592.1 2569.21 2589 2562.61L2586.7 2559.71C2586.3 2551.81 2585.4 2544.01 2588.1 2536.61C2595.8 2515.51 2619.7 2502.71 2635.4 2494.91C2653.3 2479.01 2680.7 2470.71 2701.4 2462.11C2738.4 2445.31 2764.7 2445.21 2802.3 2459.11C2822 2461.41 2843.4 2469.91 2861.9 2479.01C2883.5 2468.01 2906.7 2460.41 2928.9 2451.91C2965.1 2437.97 3001.57 2425.34 3038.3 2414.01C3075.03 2402.74 3111.93 2392.81 3149 2384.21C3154.3 2383.51 3160.1 2383.41 3164.9 2380.31C3166.43 2352.17 3168.2 2324.07 3170.2 2296.01L3170 2288.71L3176.3 2284.61Z" fill="#F5A88B"/>
<path d="M2623.3 2610.51C2645.8 2582.01 2673.4 2568.41 2701.9 2554.31C2713.7 2548.41 2726.5 2540.21 2739.3 2540.41L2740.3 2542.51C2734.8 2549.01 2726 2551.51 2719.2 2554.91C2696.7 2566.31 2652.3 2584.71 2636.8 2609.31C2634 2613.81 2633.2 2619.61 2630.8 2624.31C2628.5 2617.41 2628.3 2614.51 2623.3 2610.51Z" fill="#B55347"/>
<path d="M2688.9 2607.31C2703 2598.71 2755.8 2571.01 2768.6 2575.31L2769.1 2577.61C2764.4 2581.21 2697.7 2612.91 2694.7 2613.31C2685.2 2620.41 2667.3 2629.01 2663.1 2643.01C2662.3 2645.51 2662 2648.91 2661.7 2651.51L2661.5 2654.21C2653.3 2640.31 2646.2 2642.71 2637.3 2633.01C2640.1 2632.81 2641.2 2633.01 2643.9 2634.41C2645.7 2635.41 2649.1 2637.21 2651.2 2636.51C2655.7 2635.21 2678 2613.21 2687 2608.31L2688.9 2607.31Z" fill="#B55347"/>
<path d="M2600.6 2576.91C2617 2538.41 2668.3 2517.01 2698.2 2506.21C2702.13 2504.74 2706.13 2503.47 2710.2 2502.41C2714.2 2501.41 2718.23 2500.61 2722.3 2500.01L2720.3 2501.31C2699.2 2515.11 2617.6 2547.71 2610.8 2577.71C2608.5 2588.11 2615.1 2599.51 2619.1 2607.81C2611.4 2602.71 2607.1 2597.61 2604.1 2586.71C2603.3 2583.81 2602.7 2581.61 2601.5 2578.91C2601.2 2578.21 2600.9 2577.61 2600.6 2576.91Z" fill="#B55347"/>
<path d="M3295.3 2358.91C3336 2355.71 3384.9 2357.41 3424.5 2371.11C3429.9 2372.91 3435.2 2374.81 3440.4 2377.11C3421.8 2376.71 3402.7 2373.01 3384 2371.41C3350.3 2366.71 3315.7 2366.71 3281.8 2367.91C3272.1 2368.21 3239.3 2373.71 3232.5 2369.31C3248.4 2360.61 3277.6 2360.21 3295.3 2358.91Z" fill="#B55347"/>
<path d="M3170 2288.71L3176.3 2284.61C3186.2 2298.91 3195.3 2314.01 3204.5 2329.01C3212.5 2343.11 3220.4 2357.61 3229.7 2370.21L3176.3 2378.81C3172.5 2379.51 3168.7 2379.91 3164.9 2380.31C3166.43 2352.17 3168.2 2324.07 3170.2 2296.01L3170 2288.71Z" fill="#8CA0CA"/>
<path d="M3176.3 2284.61C3253.5 2242.41 3328.7 2194.31 3406.2 2153.31C3414.8 2167.01 3422.1 2182.31 3429.2 2197.51C3375.5 2233.11 3318.2 2261.41 3263.1 2293.21C3244.3 2304.11 3221.2 2313.71 3204.5 2329.01C3195.3 2314.01 3186.2 2298.91 3176.3 2284.61Z" fill="#D28376"/>
<path d="M2033.2 1370.51C2037.8 1353.41 2036.5 1332.61 2038.3 1314.51C2042.9 1324.31 2057.5 1330.61 2065.4 1336.91C2077.2 1346.41 2087.7 1359.31 2097.2 1372.61C2122.9 1408.41 2142 1449.21 2164 1488.81C2213.9 1578.71 2283.8 1628.11 2364.4 1652.81C2382 1658.21 2402.2 1660.41 2418.8 1669.01C2457.7 1658.01 2497.2 1648.01 2536.9 1642.21C2527.3 1674.31 2526 1706.91 2536.5 1739.11C2551.2 1784.21 2584.8 1815.31 2618.2 1832.61C2678.4 1863.71 2749.2 1864.71 2808.4 1829.61C2815.87 1825.21 2823.17 1820.37 2830.3 1815.11C2844.4 1801.41 2857.1 1786.41 2866.6 1766.81C2886.1 1726.81 2888.5 1682.01 2881.2 1636.31C2902.27 1639.91 2923.3 1643.91 2944.3 1648.31C2965.7 1647.91 2989.7 1638.61 3011 1633.81C3050.13 1625.07 3089.2 1615.87 3128.2 1606.21C3145 1602.01 3164.4 1599.81 3180.2 1592.01C3181.6 1574.74 3183.7 1557.64 3186.5 1540.71C3191.3 1512.91 3199.9 1473.91 3219.5 1458.51C3227.4 1452.31 3236.5 1451.11 3245.3 1454.41C3277.7 1466.91 3302.4 1523.71 3317.4 1560.31C3360.9 1675.61 3378.3 1799.81 3381.8 1928.11C3382.7 1962.21 3383.5 1996.91 3381.4 2031.01C3385.3 2037.21 3389.2 2044.11 3393.7 2049.41C3398 2049.91 3402.2 2048.81 3405.3 2053.21C3405.5 2053.51 3405.6 2053.81 3405.7 2054.11C3404.2 2060.11 3402.9 2062.11 3405.4 2068.21C3413.6 2087.61 3435.8 2113.71 3447.9 2129.91C3433.97 2137.51 3420.07 2145.27 3406.2 2153.21C3328.7 2194.31 3253.5 2242.41 3176.3 2284.61L3170 2288.71L3170.2 2296.01C3168.2 2324.07 3166.43 2352.17 3164.9 2380.31C3160.1 2383.41 3154.3 2383.51 3149 2384.21C3111.93 2392.81 3075.03 2402.74 3038.3 2414.01C3001.57 2425.34 2965.13 2437.94 2929 2451.81C2906.7 2460.41 2883.5 2468.01 2861.9 2479.01C2843.4 2469.91 2822 2461.41 2802.3 2459.11C2764.7 2445.21 2738.4 2445.31 2701.4 2462.11C2680.7 2470.71 2653.4 2479.01 2635.4 2494.91C2619.7 2502.71 2595.8 2515.51 2588.1 2536.61C2585.4 2544.01 2586.3 2551.81 2586.7 2559.71L2585.2 2561.61L2582.8 2560.71C2582.5 2560.01 2582.2 2559.41 2582 2558.71C2579.7 2551.61 2580.7 2541.31 2582.6 2534.31C2588.4 2513.21 2618.4 2495.21 2632.9 2486.81C2596.2 2486.21 2281.6 2488.21 2278.9 2486.21L2028.4 2485.81L2025.6 2477.61C2024.7 2470.71 2022.3 2464.11 2020.3 2457.71C2010.9 2465.41 2002.5 2475.71 1994.1 2485.11C1962.8 2516.31 1928.3 2542.01 1887.8 2534.41C1886.6 2534.21 1885.4 2533.97 1884.2 2533.71C1883 2533.44 1881.8 2533.14 1880.6 2532.81C1879.4 2532.47 1878.2 2532.11 1877 2531.71C1875.8 2531.37 1874.6 2530.97 1873.4 2530.51C1872.2 2530.11 1871.03 2529.67 1869.9 2529.21C1868.7 2528.74 1867.53 2528.24 1866.4 2527.71C1865.2 2527.17 1864.03 2526.61 1862.9 2526.01C1861.77 2525.41 1860.63 2524.81 1859.5 2524.21C1858.37 2523.54 1857.23 2522.87 1856.1 2522.21C1854.97 2521.54 1853.87 2520.84 1852.8 2520.11C1851.67 2519.37 1850.57 2518.61 1849.5 2517.81C1848.43 2517.07 1847.37 2516.27 1846.3 2515.41C1845.23 2514.61 1844.17 2513.77 1843.1 2512.91C1842.1 2512.04 1841.1 2511.14 1840.1 2510.21C1839.03 2509.34 1838 2508.41 1837 2507.41C1836 2506.47 1835.03 2505.51 1834.1 2504.51C1828.5 2498.71 1822.8 2491.01 1816.7 2486.31C1791.9 2453.81 1778.8 2415.81 1773.1 2370.21C1774.4 2349.31 1771.4 2324.91 1770.6 2303.81C1771.6 2235.71 1778.3 2166.71 1788.7 2100.01C1793.7 2067.81 1801.7 2035.81 1805.2 2003.21C1812.5 1974.71 1816.6 1943.91 1821.9 1914.61C1830.03 1872.01 1838.57 1829.54 1847.5 1787.21C1853.7 1757.81 1859.3 1727.61 1867.4 1699.11C1853.4 1679.81 1842.5 1654.71 1833.4 1631.01C1817.6 1589.71 1789 1488.61 1801.2 1443.31C1803.3 1435.61 1806.8 1430.31 1812.4 1427.01L1822.6 1419.21C1823.1 1415.71 1823.8 1412.31 1824.8 1409.11C1828.6 1396.71 1836.5 1388.11 1845.6 1383.11C1855.3 1375.81 1865.6 1371.61 1876.3 1367.71C1883.7 1358.71 1886.7 1348.61 1896.1 1341.11C1910.8 1332.81 1924.3 1330.21 1940.1 1328.01C1975.9 1330.81 2005.9 1336.51 2033.2 1370.51Z" fill="#272A2D"/>
<path d="M2284.7 2215.81L2287.2 2215.51C2290.4 2220.41 2290.4 2226.81 2290.7 2233.01C2292.2 2270.91 2288.8 2309.31 2288.1 2347.31C2287.2 2387.71 2288.6 2429.11 2286.1 2469.41C2285.7 2474.61 2285.5 2478.91 2283.5 2483.51L2280.9 2483.41L2278.1 2478.31C2280.3 2448.41 2279.2 2416.81 2279.8 2386.71L2284.7 2215.81Z" fill="#1E1E22"/>
<path d="M2881.2 1636.31C2902.27 1639.91 2923.3 1643.91 2944.3 1648.31C2991.9 1660.81 3039.7 1672.31 3084.9 1696.91C3101 1705.61 3115.8 1717.11 3131.4 1726.91C3098.9 1752.61 3067.2 1778.61 3048.4 1824.61C3045.2 1832.41 3043.9 1841.51 3041.4 1849.71C3037 1863.81 3032.7 1877.21 3029.8 1892.11C3023 1928.01 3022 1978.51 3031.5 2013.51C3028.1 2013.01 3028 2011.21 3025.9 2007.91C3014.5 1937.71 3018.6 1872.01 3048.6 1810.41C3066.5 1773.61 3091.3 1747.21 3120.2 1726.91C3059.8 1686.11 2990.9 1663.21 2924 1651.81C2916.3 1650.41 2902.7 1645.81 2895.5 1648.41C2894.7 1648.71 2893.9 1649.31 2893.2 1649.71C2890.5 1689.91 2892.1 1754.51 2867.4 1784.91C2866.9 1785.61 2866.2 1785.91 2865.6 1786.51L2864.2 1787.71C2859 1792.51 2839.7 1815.61 2835.2 1816.11C2833.6 1816.31 2831.9 1815.41 2830.3 1815.01C2844.4 1801.41 2857.1 1786.41 2866.6 1766.81C2886.1 1726.81 2888.5 1682.01 2881.2 1636.31Z" fill="#1E1E22"/>
<path d="M3160.2 2374.91C3116.6 2289.31 3076.7 2192.41 3054.8 2092.51C3052.1 2080.51 3047.2 2064.01 3048.7 2051.71L3049.9 2050.81C3054.4 2059.81 3055.6 2072.91 3058.3 2083.21C3063.1 2101.81 3069.9 2122.41 3076.5 2140.01C3085.6 2164.31 3108.3 2200.11 3114.6 2220.21C3128.8 2245.74 3142.33 2271.84 3155.2 2298.51L3170 2288.71L3170.2 2296.01C3168.2 2324.07 3166.43 2352.17 3164.9 2380.31C3160.1 2383.41 3154.3 2383.51 3149 2384.21L3141.6 2383.01L3141.9 2381.81C3148.03 2379.61 3154.13 2377.31 3160.2 2374.91Z" fill="#1E1E22"/>
<path d="M2418.8 1669.01C2457.7 1658.01 2497.2 1648.01 2536.9 1642.21C2527.3 1674.31 2526 1706.91 2536.5 1739.11C2551.2 1784.21 2584.8 1815.31 2618.2 1832.61C2678.4 1863.71 2749.2 1864.71 2808.4 1829.61C2815.87 1825.21 2823.17 1820.37 2830.3 1815.11C2831.9 1815.41 2833.6 1816.31 2835.2 1816.11C2839.7 1815.61 2859 1792.51 2864.2 1787.71L2865.6 1786.51C2854.5 1815.21 2817.4 1838.01 2795.4 1847.31C2731.6 1874.41 2652.1 1869.11 2592.3 1826.91C2560.6 1804.61 2537 1770.81 2526.4 1724.61C2520.9 1700.31 2521.4 1677.91 2524.3 1653.11C2444.2 1665.31 2346.8 1691.11 2276.8 1746.31C2260.8 1758.81 2245.8 1774.71 2231 1789.51C2202 1818.31 2174 1847.71 2146.4 1879.01C2124.2 1904.21 2103.4 1930.41 2082 1956.81C2071.1 1970.31 2058.6 1983.41 2049 1998.51C2046.7 2002.21 2045.1 2005.01 2044.8 2009.91C2056.3 2025.11 2074.7 2036.71 2088.6 2048.21L2186.8 2129.81C2212.5 2151.31 2236.6 2176.01 2262.4 2197.11C2267.9 2201.61 2272 2204.31 2278.1 2206.81C2281.6 2208.31 2282 2209.11 2283.8 2213.11C2281.7 2216.31 2279.7 2219.81 2277.4 2222.81L2274.5 2220.81C2241.5 2188.61 2206.2 2159.51 2171.7 2130.31C2123.77 2089.44 2075.33 2049.54 2026.4 2010.61C2105.1 1903.91 2225.8 1751.91 2331.8 1699.41C2361.1 1690.01 2389.1 1677.11 2418.8 1669.01Z" fill="#1E1E22"/>
<path d="M2944.3 1648.31C2965.6 1647.91 2989.7 1638.61 3011 1633.81C3050.13 1625.07 3089.2 1615.87 3128.2 1606.21C3145 1602.01 3164.4 1599.81 3180.2 1592.01C3179 1620.31 3177.6 1648.51 3177.4 1676.81C3177.3 1693.21 3181.1 1760.01 3177.4 1769.51C3166.6 1757.81 3137.6 1738.01 3131.4 1726.91C3115.8 1717.11 3101 1705.61 3084.9 1696.91C3039.7 1672.31 2991.9 1660.81 2944.3 1648.31Z" fill="#8CA0CA"/>
<path d="M2020.7 2010.91C2037.9 1992.21 2055.1 1961.51 2071.9 1940.21C2135.9 1858.61 2207 1775.51 2285.9 1720.61C2296.8 1713.01 2320 1694.51 2331.8 1699.41C2225.8 1751.91 2105.1 1903.91 2026.4 2010.61C2075.33 2049.54 2123.76 2089.44 2171.7 2130.31C2206.2 2159.51 2241.5 2188.61 2274.5 2220.81C2254.9 2236.81 2239.4 2267.31 2221.8 2287.41C2215.2 2281.11 2208.7 2274.31 2201.8 2268.71C2179.2 2252.31 2157.2 2231.61 2135.7 2212.91C2099.03 2181.51 2062.66 2149.47 2026.6 2116.81L2021.3 2110.71C2024.7 2086.31 2021.2 2037.81 2020.7 2010.91Z" fill="#FEFEFE"/>
<path d="M3393.7 2049.41C3398 2049.91 3402.2 2048.81 3405.3 2053.21C3405.5 2053.51 3405.5 2053.81 3405.7 2054.11C3404.2 2060.11 3402.9 2062.11 3405.4 2068.21C3413.6 2087.61 3435.8 2113.71 3447.9 2129.91C3433.97 2137.51 3420.07 2145.27 3406.2 2153.21C3328.7 2194.31 3253.5 2242.41 3176.3 2284.61L3170 2288.71L3155.2 2298.51C3142.33 2271.84 3128.8 2245.74 3114.6 2220.21C3147.4 2203.51 3179.6 2183.51 3211.8 2164.91C3271.8 2130.21 3331.7 2095.81 3392.6 2064.71C3395.7 2063.11 3396.8 2061.61 3397.8 2057.41L3393.7 2049.41Z" fill="#FEFEFE"/>
<path d="M2283.8 2213.11L2284.7 2215.91L2279.8 2386.71C2279.2 2416.81 2280.3 2448.41 2278.1 2478.31L2278.9 2486.21L2028.4 2485.81L2025.6 2477.61C2024.7 2470.71 2022.3 2464.11 2020.3 2457.71C2036.9 2446.11 2053.4 2425.81 2068.4 2410.51C2097.4 2380.91 2127.5 2352.01 2155 2320.01C2170.4 2302.61 2185.6 2284.71 2201.8 2268.71C2208.7 2274.31 2215.2 2281.11 2221.8 2287.41C2239.4 2267.31 2254.9 2236.81 2274.5 2220.81L2277.4 2222.81C2279.7 2219.81 2281.7 2216.31 2283.8 2213.11Z" fill="#8CA0CA"/>
<path d="M3180.2 1592.01C3181.6 1574.74 3183.7 1557.64 3186.5 1540.71C3191.3 1512.91 3199.9 1473.91 3219.5 1458.51C3227.4 1452.31 3236.5 1451.11 3245.3 1454.41C3277.7 1466.91 3302.4 1523.71 3317.4 1560.31C3360.9 1675.61 3378.3 1799.81 3381.8 1928.11C3382.7 1962.21 3383.5 1996.91 3381.4 2031.01C3373.93 2018.81 3366.33 2006.74 3358.6 1994.81C3350.87 1982.87 3343 1971.11 3335 1959.51C3327 1947.91 3318.83 1936.47 3310.5 1925.21C3302.23 1913.94 3293.87 1902.84 3285.4 1891.91C3276.87 1881.04 3268.2 1870.31 3259.4 1859.71C3250.67 1849.11 3241.8 1838.71 3232.8 1828.51C3223.8 1818.31 3214.67 1808.27 3205.4 1798.41C3196.13 1788.61 3186.8 1778.97 3177.4 1769.51C3181.1 1760.01 3177.3 1693.21 3177.4 1676.81C3177.6 1648.51 3179 1620.31 3180.2 1592.01Z" fill="#E071A3"/>
<path d="M2033.2 1370.51C2037.8 1353.41 2036.5 1332.61 2038.3 1314.51C2042.9 1324.31 2057.5 1330.61 2065.4 1336.91C2077.2 1346.41 2087.7 1359.31 2097.2 1372.61C2122.9 1408.41 2142 1449.21 2164 1488.81C2213.9 1578.71 2283.8 1628.11 2364.4 1652.81C2382 1658.21 2402.2 1660.41 2418.8 1669.01C2389.1 1677.11 2361.1 1690.01 2331.8 1699.41C2320 1694.51 2296.8 1713.01 2285.9 1720.61C2207 1775.51 2135.9 1858.61 2071.9 1940.21C2055.1 1961.51 2037.9 1992.21 2020.7 2010.91C2021.2 2037.81 2024.7 2086.31 2021.3 2110.71L2026.6 2116.81C2062.67 2149.47 2099.03 2181.51 2135.7 2212.91C2157.2 2231.61 2179.2 2252.31 2201.8 2268.71C2185.6 2284.71 2170.4 2302.61 2155 2320.01C2127.5 2352.01 2097.4 2380.91 2068.4 2410.51C2053.4 2425.81 2036.9 2446.11 2020.3 2457.71C2010.9 2465.41 2002.5 2475.71 1994.1 2485.11C1962.8 2516.31 1928.3 2542.01 1887.8 2534.41C1886.6 2534.21 1885.4 2533.97 1884.2 2533.71C1883 2533.44 1881.8 2533.14 1880.6 2532.81C1879.4 2532.47 1878.2 2532.14 1877 2531.81C1875.8 2531.41 1874.6 2530.97 1873.4 2530.51C1872.2 2530.11 1871.03 2529.67 1869.9 2529.21C1868.7 2528.74 1867.53 2528.24 1866.4 2527.71C1865.2 2527.17 1864.03 2526.61 1862.9 2526.01C1861.77 2525.41 1860.63 2524.81 1859.5 2524.21C1858.37 2523.54 1857.23 2522.87 1856.1 2522.21C1854.97 2521.54 1853.87 2520.84 1852.8 2520.11C1851.67 2519.37 1850.57 2518.61 1849.5 2517.81C1848.43 2517.07 1847.37 2516.27 1846.3 2515.41C1845.23 2514.61 1844.17 2513.77 1843.1 2512.91C1842.1 2512.04 1841.1 2511.14 1840.1 2510.21C1839.03 2509.34 1838 2508.41 1837 2507.41C1836 2506.47 1835.03 2505.51 1834.1 2504.51C1828.5 2498.71 1822.8 2491.01 1816.7 2486.31C1791.9 2453.81 1778.8 2415.81 1773.1 2370.21C1774.4 2349.31 1771.4 2324.91 1770.6 2303.81C1771.6 2235.71 1778.3 2166.71 1788.7 2100.01C1793.7 2067.81 1801.7 2035.81 1805.2 2003.21C1812.5 1974.71 1816.6 1943.91 1821.9 1914.61C1830.03 1872.01 1838.57 1829.54 1847.5 1787.21C1853.7 1757.81 1859.3 1727.61 1867.4 1699.11C1853.4 1679.81 1842.5 1654.71 1833.4 1631.01C1817.6 1589.81 1789 1488.61 1801.2 1443.31C1803.3 1435.61 1806.8 1430.31 1812.4 1427.01L1822.6 1419.21C1823.1 1415.71 1823.8 1412.31 1824.8 1409.11C1828.6 1396.71 1836.5 1388.11 1845.6 1383.11C1855.3 1375.81 1865.6 1371.61 1876.3 1367.71C1883.7 1358.71 1886.7 1348.61 1896.1 1341.11C1910.8 1332.81 1924.3 1330.21 1940.1 1328.01C1975.9 1330.81 2005.9 1336.51 2033.2 1370.51Z" fill="#F5A88B"/>
<path d="M2021.3 2110.71L2026.6 2116.81C2029.2 2167.01 2027.5 2216.91 2028.6 2267.11C2027.6 2283.71 2026.8 2300.31 2024.8 2316.81C2022.9 2333.41 2020.4 2354.11 2015.6 2369.71C2011.9 2355.91 2016.3 2326.61 2017.4 2311.21C2018.2 2280.11 2017.3 2125.91 2021.3 2110.71Z" fill="#B55347"/>
<path d="M2026.6 2116.81C2062.67 2149.47 2099.03 2181.51 2135.7 2212.91C2157.2 2231.61 2179.2 2252.31 2201.8 2268.71C2185.6 2284.71 2170.4 2302.61 2155 2320.01C2142.7 2304.51 2126.8 2291.91 2112.6 2279.61C2085.2 2255.71 2056.6 2233.01 2030.3 2206.81C2030.3 2226.61 2031.4 2247.71 2028.6 2267.11C2027.5 2216.91 2029.2 2167.01 2026.6 2116.81Z" fill="#D28376"/>
<path d="M1940.1 1328.01C1975.9 1330.81 2005.9 1336.51 2033.2 1370.51C2041.9 1384.41 2045.2 1397.31 2049.2 1414.31C2048.6 1414.91 2048 1415.61 2047.4 1416.21C2040.1 1423.61 2026.6 1425.61 2017.8 1430.51C2005.3 1437.41 1980.6 1466.41 1978.3 1485.11C1977.7 1489.61 1977.9 1494.11 1980.2 1497.81C1983.6 1503.21 1989.4 1506.41 1994.6 1506.71C2007 1507.31 2038 1470.61 2042.9 1474.71C2036.5 1498.11 1984.7 1524.81 1968.7 1543.41C1964 1550.81 1959.4 1558.51 1956.3 1567.31C1948.1 1590.71 1949.4 1620.71 1932.5 1637.01C1929 1640.31 1924.4 1644.51 1919.9 1643.61C1924.1 1636.91 1929.5 1631.51 1933.6 1624.71C1941.1 1612.31 1939.9 1593.01 1943.1 1578.21C1947.9 1556.41 1957.3 1538.51 1972.1 1527.11L1980.7 1518.71C1971.03 1519.51 1961.33 1520.14 1951.6 1520.61C1937 1533.61 1922.3 1548.01 1903.6 1543.71C1898.8 1542.51 1894.4 1539.51 1890.1 1536.71C1883.2 1533.41 1876.9 1530.11 1870.6 1525.11C1868.6 1524.71 1869.6 1525.01 1866.9 1523.41C1859.5 1519.01 1854 1512.21 1851.4 1501.91C1849.1 1493.11 1850.6 1487.71 1853.4 1479.71C1859.3 1472.21 1864.8 1467.41 1873.2 1467.71C1881.9 1468.01 1890.8 1474.41 1896.4 1483.11C1898.9 1486.81 1900.4 1490.01 1901.1 1494.91L1899.8 1499.11C1896.6 1500.01 1896 1500.61 1893.3 1498.01C1885.9 1491.01 1883.1 1478.41 1872.1 1479.51C1867.4 1479.91 1863.3 1482.51 1859.2 1485.41C1857.9 1490.91 1857.1 1494.21 1859 1499.91C1862.9 1511.91 1876.9 1518.61 1885.5 1522.91C1893.9 1525.91 1903.5 1526.71 1912 1525.31C1921.2 1523.81 1930 1518.61 1935.5 1508.31C1940.6 1498.71 1941.9 1487.01 1940.1 1475.61C1936.5 1452.21 1923.9 1437.81 1909.9 1425.11C1884.7 1413.11 1864.1 1414.81 1838.2 1421.21C1830.6 1423.11 1822.7 1426.21 1814.9 1426.81C1814.1 1426.87 1813.27 1426.94 1812.4 1427.01L1822.6 1419.21C1823.1 1415.71 1823.8 1412.31 1824.8 1409.11C1828.6 1396.71 1836.5 1388.11 1845.6 1383.11C1855.3 1375.81 1865.6 1371.61 1876.3 1367.71C1883.7 1358.71 1886.7 1348.61 1896.1 1341.11C1910.8 1332.81 1924.3 1330.21 1940.1 1328.01Z" fill="#B55347"/>
<path d="M1890.1 1536.71C1896.1 1536.11 1902.2 1536.61 1908.2 1536.11C1922.2 1534.91 1937.9 1525.21 1945.7 1509.21C1948.6 1503.21 1950.4 1495.41 1954.2 1490.41C1956.9 1486.81 1963.8 1487.81 1967.4 1488.21C1968.4 1490.21 1969.5 1492.11 1970.4 1494.11C1974.8 1504.11 1977.3 1507.81 1984.9 1513.01L1987.1 1514.51C1985.2 1517.61 1983.5 1517.51 1980.7 1518.71C1971.03 1519.51 1961.33 1520.14 1951.6 1520.61C1937 1533.61 1922.3 1548.01 1903.6 1543.71C1898.8 1542.51 1894.4 1539.51 1890.1 1536.71Z" fill="#D28376"/>
<path d="M1896.1 1341.11C1896.96 1341.17 1897.83 1341.21 1898.7 1341.21C1906.3 1341.41 1914 1339.31 1921.6 1338.71C1956.7 1336.01 1995 1337.21 2021.5 1372.81C2030.8 1385.41 2035.8 1398.41 2039.8 1414.91C2025 1419.11 2008.7 1421.81 1997.6 1436.91C1995 1428.61 1992.9 1420.51 1988.2 1413.91C1983.3 1402.81 1974.9 1391.61 1967.2 1384.11C1941 1358.61 1906.7 1361.81 1876.3 1367.71C1883.7 1358.71 1886.7 1348.61 1896.1 1341.11Z" fill="#F5A88B"/>
<path d="M1845.6 1383.11C1857.1 1382.91 1870.6 1376.81 1882.3 1374.51C1904.1 1370.31 1921.3 1374.11 1942.8 1376.81C1959 1389.11 1978.1 1406.91 1983.3 1432.31C1985.2 1441.81 1984.6 1451.21 1980.9 1459.81C1977 1468.91 1970.2 1476.81 1962.4 1479.61C1958 1481.31 1955.6 1480.41 1951.7 1477.31C1947.1 1465.31 1946.3 1449.71 1937.8 1441.01C1932.2 1430.51 1923.3 1422.61 1914.6 1417.21C1886.1 1399.51 1851.2 1405.51 1822.6 1419.21C1823.1 1415.71 1823.8 1412.31 1824.8 1409.11C1828.6 1396.71 1836.5 1388.11 1845.6 1383.11Z" fill="#F5A88B"/>
<path d="M2033.2 1370.51C2037.8 1353.41 2036.5 1332.61 2038.3 1314.51C2042.9 1324.31 2057.5 1330.61 2065.4 1336.91C2077.2 1346.41 2087.7 1359.31 2097.2 1372.61C2122.9 1408.41 2142 1449.21 2164 1488.81C2213.9 1578.71 2283.8 1628.11 2364.4 1652.81C2382 1658.21 2402.2 1660.41 2418.8 1669.01C2389.1 1677.11 2361.1 1690.01 2331.8 1699.41C2320 1694.51 2296.8 1713.01 2285.9 1720.61C2207 1775.51 2135.9 1858.61 2071.9 1940.21C2055.1 1961.51 2037.9 1992.21 2020.7 2010.91C2015.1 1901.31 2013.1 1791.41 2004.8 1681.91C2017 1671.51 2030.1 1661.11 2040.2 1647.01C2062.2 1616.11 2112.2 1499.51 2110.3 1455.11C2109.9 1445.21 2106.2 1437.21 2100.6 1431.01C2086.5 1415.41 2066.6 1412.71 2049.2 1414.31C2045.2 1397.31 2041.9 1384.41 2033.2 1370.51Z" fill="#8CA0CA"/>
<path d="M2866.6 1766.81C2886.1 1726.81 2888.5 1682.01 2881.2 1636.31L2703.4 1581.51L2536.9 1642.21C2527.3 1674.31 2526 1706.91 2536.5 1739.11C2551.2 1784.21 2584.8 1815.31 2618.2 1832.61C2678.4 1863.71 2749.2 1864.71 2808.4 1829.61C2815.87 1825.21 2823.17 1820.37 2830.3 1815.11C2844.4 1801.41 2857.1 1786.41 2866.6 1766.81Z" fill="#FEFEFE"/>
<path d="M2337.6 744.506C2344.7 752.406 2379.3 762.206 2389.8 765.006L2389.1 774.406C2378.1 822.306 2374.1 876.206 2371.1 926.006C2370 943.406 2371.4 966.406 2367.9 982.906C2360.7 966.906 2353.3 951.006 2346.6 934.606C2320.2 870.306 2322.4 813.106 2337.6 744.506Z" fill="#413839"/>
<path d="M1944.7 1257.21C1946.6 1230.01 1947.7 1199.11 1964.6 1180.01C1973.4 1170.11 1985.4 1164.91 1996.9 1166.41C1997.57 1166.47 1998.27 1166.57 1999 1166.71C1999.67 1166.84 2000.37 1167.01 2001.1 1167.21C2001.77 1167.41 2002.47 1167.64 2003.2 1167.91C2003.87 1168.11 2004.53 1168.34 2005.2 1168.61C2005.87 1168.94 2006.53 1169.27 2007.2 1169.61C2007.87 1169.94 2008.53 1170.27 2009.2 1170.61C2009.87 1171.01 2010.5 1171.41 2011.1 1171.81C2011.77 1172.21 2012.4 1172.64 2013 1173.11C2013.67 1173.57 2014.3 1174.07 2014.9 1174.61C2015.5 1175.07 2016.07 1175.61 2016.6 1176.21C2017.2 1176.74 2017.77 1177.31 2018.3 1177.91C2018.9 1178.44 2019.47 1179.04 2020 1179.71C2020.53 1180.31 2021.07 1180.94 2021.6 1181.61C2022.07 1182.27 2022.53 1182.94 2023 1183.61C2023.53 1184.34 2024.03 1185.07 2024.5 1185.81C2024.9 1186.47 2025.33 1187.21 2025.8 1188.01C2043 1218.31 2040 1278.21 2038.3 1314.51C2036.5 1332.61 2037.8 1353.41 2033.2 1370.51C2005.9 1336.51 1975.9 1330.81 1940.1 1328.01C1942.1 1304.47 1943.63 1280.87 1944.7 1257.21Z" fill="#F5A88B"/>
<path d="M3048.7 1065.21C3074.2 1064.21 3100.5 1070.31 3119.7 1094.81C3130.1 1108.11 3136.9 1125.81 3136.9 1145.31C3136.9 1169.21 3127.3 1192.01 3114.5 1208.21C3093.3 1235.01 3061.8 1245.81 3033.2 1244.41C3024 1244.01 3009.4 1236.11 3001.3 1238.71C3000.4 1242.71 2999.5 1246.71 2998.8 1250.71C3001.6 1216.81 3002 1182.61 3004.3 1148.51L3004.7 1136.61C3005.7 1119.11 3005.9 1101.41 3006.5 1083.81C3020.4 1077.01 3034.3 1070.51 3048.7 1065.21Z" fill="#F5A88B"/>
<path d="M3004.7 1136.61C3026.5 1120.61 3057.7 1101.31 3083 1112.11C3088.7 1114.51 3095.5 1120.21 3097.8 1128.01C3099.5 1133.91 3098.7 1143.81 3096.2 1149.21C3095.8 1149.91 3095.4 1150.51 3095 1151.11L3092.8 1149.91C3091.6 1140.81 3092.4 1132.71 3086 1126.91C3074 1116.01 3051.7 1124.61 3038.2 1127.51C3047.2 1134.61 3060.1 1142.91 3063.3 1157.41C3064.9 1164.41 3064.2 1176.61 3060.2 1182.21C3059.6 1183.21 3058.7 1183.91 3058 1184.81C3051.4 1174.41 3056.7 1140.21 3031.6 1137.61C3020.8 1136.51 3013.5 1142.01 3004.3 1148.51L3004.7 1136.61Z" fill="#B55347"/>
<path d="M2579.1 1604.51C2674.6 1616.11 2754.3 1596.61 2841.2 1542.51L2839.7 1562.91C2835.7 1616.21 2835.8 1726.61 2802.5 1762.01C2772.2 1794.21 2724.3 1799.01 2687.4 1792.61C2655.3 1787.11 2618.2 1772.31 2597.9 1736.21C2584.3 1712.11 2580.1 1681.81 2580.1 1652.21C2580.3 1636.31 2579.5 1620.41 2579.1 1604.51Z" fill="#F5A88B"/>
<path d="M2579.1 1604.51C2674.6 1616.11 2754.3 1596.61 2841.2 1542.51L2839.7 1562.91C2772.1 1636.11 2689.7 1677.31 2602.1 1665.51C2595.4 1664.61 2588.1 1663.71 2582.4 1658.61L2580.1 1652.21C2580.3 1636.31 2579.5 1620.41 2579.1 1604.51Z" fill="#D28376"/>
<path d="M2416.5 504.006C2416.37 503.273 2416.2 502.573 2416 501.906C2407.9 470.706 2384.5 431.406 2396.3 397.106C2399.4 387.906 2406.3 380.406 2413.5 377.406C2424.2 373.006 2435.5 379.706 2444.7 386.806C2504.2 432.506 2514.8 502.206 2593.1 504.206C2618.1 504.806 2644.2 501.006 2668.4 492.506C2691.9 484.306 2713.8 470.006 2737.2 461.306C2805.4 436.206 2892.8 433.806 2955.7 482.006C2966.5 490.206 2977.7 500.706 2985.8 513.506C2995.9 525.306 3002.4 542.906 3006.9 559.606C3008.9 570.106 3010.6 580.006 3010.6 591.006C3010.6 605.206 3002.9 643.906 3004.9 652.006C2978.3 700.106 2941.1 712.806 2907.2 742.806L2895.2 751.106C2858.8 771.206 2823.2 786.206 2784.9 798.106L2781.4 799.106C2660.1 825.806 2507.7 809.506 2389.8 765.006C2379.3 762.206 2344.7 752.406 2337.6 744.506C2296.2 724.206 2255.3 694.506 2235.7 638.806C2231.2 625.806 2225 604.506 2229.4 590.706C2237.4 565.406 2257.1 579.106 2270.8 570.806L2272.6 569.606C2261.8 540.906 2248.3 508.506 2250.1 475.406C2250.17 474.206 2250.23 473.006 2250.3 471.806C2250.43 470.606 2250.57 469.406 2250.7 468.206C2250.83 467.006 2251 465.84 2251.2 464.706C2251.4 463.506 2251.63 462.34 2251.9 461.206C2252.1 460.073 2252.33 458.906 2252.6 457.706C2252.93 456.573 2253.27 455.44 2253.6 454.306C2253.87 453.24 2254.2 452.14 2254.6 451.006C2254.93 449.94 2255.3 448.873 2255.7 447.806C2256.1 446.74 2256.53 445.673 2257 444.606C2257.47 443.54 2257.93 442.506 2258.4 441.506C2258.87 440.506 2259.37 439.506 2259.9 438.506C2260.43 437.506 2260.97 436.54 2261.5 435.606C2262.1 434.673 2262.67 433.74 2263.2 432.806C2263.8 431.94 2264.43 431.073 2265.1 430.206C2265.7 429.34 2266.33 428.473 2267 427.606C2267.67 426.806 2268.33 426.006 2269 425.206C2269.73 424.406 2270.47 423.606 2271.2 422.806C2271.93 422.073 2272.67 421.34 2273.4 420.606C2274.2 419.873 2275 419.173 2275.8 418.506C2276.6 417.84 2277.4 417.206 2278.2 416.606C2279 416.006 2279.83 415.406 2280.7 414.806C2281.5 414.273 2282.33 413.74 2283.2 413.206C2284.07 412.74 2284.93 412.273 2285.8 411.806C2286.67 411.34 2287.57 410.906 2288.5 410.506C2289.37 410.106 2290.27 409.74 2291.2 409.406C2292.07 409.073 2292.97 408.773 2293.9 408.506C2294.83 408.24 2295.77 408.006 2296.7 407.806C2297.63 407.606 2298.57 407.44 2299.5 407.306C2300.43 407.106 2301.37 406.973 2302.3 406.906C2303.23 406.84 2304.17 406.773 2305.1 406.706C2306.03 406.706 2306.97 406.706 2307.9 406.706C2308.83 406.773 2309.77 406.84 2310.7 406.906C2350.2 411.106 2387.1 469.506 2410.6 507.606C2413.8 507.106 2414.1 506.806 2416.5 504.006Z" fill="#272A2D"/>
<path d="M2772.5 466.506C2836.4 457.906 2908.2 450.506 2961.5 508.506C2971.9 519.806 2979.8 532.706 2986.9 547.906C2989.4 557.906 2991.9 567.706 2993.6 578.006C2993.7 592.906 2991.3 606.806 2988.8 621.106C2987.2 584.606 2984.5 558.206 2962.9 531.706C2913.9 471.506 2836.9 465.706 2773.9 469.206L2772.5 466.506Z" fill="#FEFEFE"/>
<path d="M2392.6 655.206C2405.6 656.506 2415.7 678.006 2429.7 682.206C2458.6 691.006 2488.9 675.406 2518.2 682.706C2529.4 685.406 2538 696.006 2547 704.606C2571.4 728.006 2600.4 727.306 2629.2 725.806C2671.3 723.606 2710.9 710.706 2751.2 695.606C2766.9 689.706 2784.1 680.306 2800.1 677.906L2802.2 680.406C2780.4 699.006 2734.9 712.206 2708.5 719.206C2667.4 730.206 2594.7 743.306 2555.8 720.106C2539.6 710.506 2524.4 693.006 2506.6 690.006C2475.1 684.706 2433 705.506 2405 679.106C2398.5 672.906 2393.9 665.806 2392.6 655.206Z" fill="#505458"/>
<path d="M3004.9 652.006C3031.4 653.506 3061.2 674.306 3079.1 700.106C3099.6 729.606 3106.7 768.006 3105.4 807.506C3103.2 876.806 3069.8 1000.61 3048.7 1065.21C3034.3 1070.51 3020.4 1077.01 3006.5 1083.81C3005.9 1101.41 3005.7 1119.11 3004.7 1136.61L3004.3 1148.51C3002 1182.61 3001.6 1216.81 2998.8 1250.71C2998.7 1271.21 2996.3 1298.41 2990.9 1317.51C2976.4 1401.61 2935.2 1468.11 2881 1513.21C2868.1 1523.91 2854.6 1533.21 2841.2 1542.51C2754.3 1596.61 2674.6 1616.11 2579.1 1604.51C2573.77 1603.64 2568.4 1602.57 2563 1601.31C2557.67 1600.11 2552.37 1598.71 2547.1 1597.11C2541.83 1595.51 2536.57 1593.74 2531.3 1591.81C2526.1 1589.87 2520.93 1587.77 2515.8 1585.51C2476.9 1572.01 2433.9 1536.81 2406.2 1498.31C2361.4 1435.91 2341.7 1340.61 2349.9 1255.91C2353.2 1222.21 2361.2 1189.21 2364.1 1155.61C2365.4 1140.41 2364.5 1124.41 2364.6 1109.11L2365.8 1032.71C2365 1018.61 2363.2 995.706 2367.9 982.906C2371.4 966.406 2370 943.406 2371.1 926.006C2374.1 876.206 2378.1 822.306 2389.1 774.406L2389.8 765.006C2507.7 809.506 2660.1 825.806 2781.4 799.106L2784.9 798.106C2823.2 786.206 2858.8 771.206 2895.2 751.106L2907.2 742.806C2941.1 712.806 2978.3 700.106 3004.9 652.006Z" fill="#413839"/>
<path d="M2515.8 1585.51L2519.7 1583.31L2521.1 1583.71C2538.1 1588.91 2574.5 1599.71 2590.8 1601.51C2593.8 1601.84 2596.83 1602.14 2599.9 1602.41C2602.96 1602.61 2606 1602.81 2609 1603.01C2612.06 1603.21 2615.1 1603.34 2618.1 1603.41C2621.16 1603.47 2624.2 1603.54 2627.2 1603.61C2630.27 1603.61 2633.33 1603.57 2636.4 1603.51C2639.4 1603.37 2642.43 1603.24 2645.5 1603.11C2648.5 1602.97 2651.53 1602.77 2654.6 1602.51C2657.6 1602.31 2660.63 1602.04 2663.7 1601.71C2666.7 1601.37 2669.73 1601.04 2672.8 1600.71C2675.8 1600.31 2678.8 1599.84 2681.8 1599.31C2684.8 1598.84 2687.83 1598.34 2690.9 1597.81C2693.9 1597.27 2696.9 1596.67 2699.9 1596.01C2702.9 1595.34 2705.9 1594.67 2708.9 1594.01C2711.9 1593.27 2714.87 1592.51 2717.8 1591.71C2720.8 1590.91 2723.77 1590.07 2726.7 1589.21C2729.7 1588.34 2732.66 1587.41 2735.6 1586.41C2738.6 1585.47 2741.56 1584.47 2744.5 1583.41C2747.43 1582.41 2750.37 1581.34 2753.3 1580.21C2756.17 1579.14 2759.06 1578.01 2762 1576.81C2764.93 1575.61 2767.83 1574.37 2770.7 1573.11C2773.57 1571.84 2776.43 1570.54 2779.3 1569.21C2782.17 1567.81 2785.03 1566.41 2787.9 1565.01C2790.76 1563.61 2793.6 1562.14 2796.4 1560.61C2799.2 1559.14 2802 1557.61 2804.8 1556.01C2807.6 1554.47 2810.4 1552.87 2813.2 1551.21C2816 1549.54 2818.76 1547.84 2821.5 1546.11C2824.23 1544.44 2826.97 1542.71 2829.7 1540.91C2832.43 1539.11 2835.13 1537.27 2837.8 1535.41C2840.53 1533.54 2843.23 1531.64 2845.9 1529.71C2848.56 1527.77 2851.23 1525.77 2853.9 1523.71C2856.5 1521.71 2859.1 1519.67 2861.7 1517.61C2864.3 1515.54 2866.9 1513.44 2869.5 1511.31C2904.1 1482.41 2938.4 1443.91 2960.6 1397.71C2964.2 1390.41 2966.1 1381.61 2969.3 1373.91C2973.6 1363.51 2979.8 1352.41 2981.6 1340.71C2982.7 1333.21 2984.6 1318.71 2988.9 1313.71L2990.9 1317.51C2976.4 1401.61 2935.2 1468.11 2881 1513.21C2868.1 1523.91 2854.6 1533.21 2841.2 1542.51C2754.3 1596.61 2674.6 1616.11 2579.1 1604.51C2573.76 1603.64 2568.4 1602.57 2563 1601.31C2557.66 1600.11 2552.36 1598.71 2547.1 1597.11C2541.83 1595.51 2536.57 1593.74 2531.3 1591.81C2526.1 1589.87 2520.93 1587.77 2515.8 1585.51Z" fill="#1E1E22"/>
<path d="M2748.9 1295.61L2757.7 1296.21C2758.7 1299.91 2758.6 1302.61 2757.4 1306.31C2751.2 1326.91 2722.1 1345.61 2706.9 1352.31C2688.3 1360.41 2668.4 1362.21 2649.7 1353.51C2644.6 1350.91 2641.5 1348.71 2637.5 1343.31C2650.6 1322.41 2668.9 1313.71 2687.9 1306.81C2707.9 1299.61 2728.4 1297.91 2748.9 1295.61Z" fill="#D28376"/>
<path d="M2603 1300.91C2602.6 1300.11 2602.3 1299.31 2602 1298.41C2599.8 1293.01 2598 1288.91 2599.4 1282.91C2611.3 1278.71 2625.9 1280.21 2638.3 1279.21C2654.7 1277.54 2671.03 1275.04 2687.3 1271.71C2714 1266.11 2738.9 1251.71 2765.3 1244.91C2768.9 1246.61 2768.8 1246.71 2770.8 1251.11C2770.6 1257.71 2768.8 1261.61 2766.5 1267.11L2766.8 1271.31C2758 1285.01 2730.2 1290.11 2717 1293.91C2727.1 1293.51 2739.8 1290.71 2749.6 1293.31L2748.9 1295.61C2728.4 1297.91 2707.9 1299.61 2687.9 1306.81C2668.9 1313.61 2650.6 1322.41 2637.5 1343.31C2635 1344.31 2636 1344.61 2634.5 1343.91C2623.3 1330.21 2612.2 1317.21 2603 1300.91Z" fill="#FEFEFE"/>
<path d="M2766.4 1267.11L2766.8 1271.31C2758 1285.01 2730.2 1290.11 2716.9 1293.91C2727.1 1293.51 2739.8 1290.71 2749.6 1293.31L2748.9 1295.61C2728.4 1297.91 2707.9 1299.61 2687.9 1306.81C2668.9 1313.71 2650.6 1322.41 2637.5 1343.31C2635 1344.31 2635.9 1344.61 2634.5 1343.91C2623.3 1330.21 2612.2 1317.21 2603 1300.91C2609.9 1301.81 2616.6 1302.41 2623.5 1302.61C2669.8 1301.31 2723.9 1291.71 2766.4 1267.11Z" fill="#272A2D"/>
<path d="M2603 1300.91C2609.9 1301.81 2616.6 1302.41 2623.5 1302.61C2623.1 1303.01 2622.7 1303.41 2622.3 1303.71C2619 1305.91 2614.1 1304.81 2610.5 1304.61L2609.6 1305.91C2618.2 1314.21 2650.9 1309.31 2661.9 1307.21C2664.7 1306.61 2667.3 1305.61 2670 1304.61C2672.5 1303.81 2674.1 1304.41 2676.5 1304.31C2677.6 1304.21 2679.9 1303.61 2681.1 1303.31L2681.2 1302.41L2683.8 1303.61C2682.8 1303.81 2681.8 1304.04 2680.8 1304.31C2678.5 1304.81 2677.4 1305.31 2675.4 1306.81C2663.2 1316.01 2640.1 1315.91 2635 1338.51C2634.7 1340.01 2634.6 1342.41 2634.5 1343.91C2623.3 1330.21 2612.2 1317.21 2603 1300.91Z" fill="#1E1E22"/>
<path d="M2907.2 742.806C2915.1 763.906 2920.8 786.306 2926.3 808.606C2936.8 846.206 2954.1 919.606 2957.1 958.506C2962.1 1022.31 2938.4 1165.01 2918.8 1221.81C2914 1235.71 2906.9 1253.21 2895.4 1258.51C2875.5 1267.71 2852.5 1255.91 2834.8 1243.51C2799 1218.31 2771.2 1185.41 2727.8 1203.01C2702.6 1213.31 2683.2 1231.31 2666.1 1257.81C2633.2 1244.71 2600.4 1229.51 2566 1226.21C2547.8 1224.51 2529.5 1225.71 2511.4 1227.61C2474.1 1231.31 2408.5 1246.31 2386.3 1193.31C2367.2 1147.81 2372.7 1063.91 2368.1 1011.01C2367.5 1018.21 2367.2 1025.71 2365.8 1032.71C2365 1018.61 2363.2 995.706 2367.9 982.906C2371.4 966.406 2370 943.406 2371.1 926.006C2374.1 876.206 2378.1 822.306 2389.1 774.406L2389.8 765.006C2507.7 809.506 2660.1 825.806 2781.4 799.106L2784.9 798.106C2823.2 786.206 2858.8 771.206 2895.2 751.106L2907.2 742.806Z" fill="#F5A88B"/>
<path d="M2738.3 992.306C2759.1 977.006 2782.6 972.106 2805.7 981.106C2816.7 985.406 2836.9 997.806 2841.2 1013.31C2841.9 1015.91 2841.8 1016.21 2841.8 1018.51C2838.7 1020.61 2838.6 1020.31 2835.5 1018.71C2829.7 1015.81 2824.3 1010.61 2818.8 1006.91C2802.7 996.106 2785.3 995.506 2767.7 996.306C2764.2 998.506 2759.2 999.306 2755.4 1000.91C2743.3 1006.21 2731.3 1012.61 2719.5 1018.91C2724.7 1007.51 2730.2 1000.11 2738.3 992.306Z" fill="#1E1E22"/>
<path d="M2495 968.506C2513.7 967.006 2533.2 971.606 2549.1 985.706C2554.7 990.606 2561.8 997.406 2563.3 1006.51C2557.8 1009.21 2524.4 990.506 2513.9 988.206C2483.1 986.206 2465.4 1001.71 2437.6 1014.81C2438.8 1012.21 2440.07 1009.64 2441.4 1007.11C2453.7 983.306 2474.7 973.706 2495 968.506Z" fill="#1E1E22"/>
<path d="M2629.5 1029.51L2630.3 1030.61C2633.5 1047.71 2595.1 1134.11 2587.4 1153.01C2583.2 1163.31 2576.9 1178.71 2580.7 1190.51C2582.2 1194.91 2585.1 1198.01 2588.3 1200.01C2613.9 1215.91 2647.7 1195.01 2671.8 1184.31C2665 1192.21 2658.5 1198.81 2650.7 1204.91C2648.1 1206.31 2645.47 1207.57 2642.8 1208.71C2620.9 1218.01 2589.7 1223.01 2568.9 1207.11C2564.5 1203.71 2559.7 1198.21 2559 1191.11C2557 1172.71 2617.6 1054.81 2629.5 1029.51Z" fill="#B55347"/>
<path d="M2446.9 886.806L2443.8 886.906C2445.6 876.306 2457.6 866.906 2464.4 861.206C2486.2 843.206 2513.5 838.506 2538.5 846.906C2547.5 849.906 2560 855.806 2565.3 866.806C2567.2 870.906 2566.9 872.606 2566.7 877.306C2562 885.906 2555.1 889.106 2547.4 890.706C2539.9 892.306 2532.4 890.006 2524.9 890.306C2499 885.506 2473.1 884.806 2446.9 886.806Z" fill="#272A2D"/>
<path d="M2742.2 860.605C2772.4 851.305 2804.3 852.805 2831.2 875.505C2839.5 882.405 2851.6 893.905 2855.1 906.205L2854.2 909.005L2848.3 908.406C2833.1 902.906 2816 901.305 2800.4 900.705C2781.1 899.805 2748.9 908.806 2732.7 892.906C2729.1 889.406 2728.6 886.906 2727.7 881.306C2729.9 871.306 2735.9 865.705 2742.2 860.605Z" fill="#272A2D"/>
<path d="M2495.2 1014.51C2505.6 1013.51 2515.2 1012.71 2525 1018.71C2533.7 1024.01 2540.9 1032.91 2544.1 1045.11C2544.23 1045.77 2544.4 1046.41 2544.6 1047.01C2544.73 1047.67 2544.83 1048.34 2544.9 1049.01C2545.03 1049.61 2545.13 1050.24 2545.2 1050.91C2545.33 1051.57 2545.43 1052.24 2545.5 1052.91C2545.57 1053.57 2545.6 1054.24 2545.6 1054.91C2545.67 1055.57 2545.7 1056.24 2545.7 1056.91C2545.7 1057.57 2545.7 1058.24 2545.7 1058.91C2545.7 1059.57 2545.67 1060.24 2545.6 1060.91C2545.6 1061.57 2545.57 1062.24 2545.5 1062.91C2545.43 1063.57 2545.33 1064.24 2545.2 1064.91C2545.13 1065.51 2545.03 1066.14 2544.9 1066.81C2544.77 1067.47 2544.63 1068.14 2544.5 1068.81C2544.37 1069.41 2544.23 1070.04 2544.1 1070.71C2543.9 1071.31 2543.7 1071.91 2543.5 1072.51C2543.3 1073.17 2543.1 1073.77 2542.9 1074.31C2542.7 1074.97 2542.47 1075.57 2542.2 1076.11C2536.1 1091.01 2525.2 1097.31 2513.6 1102.01C2503.1 1102.71 2493.7 1102.71 2483.9 1096.51C2475.5 1091.11 2468.4 1082.01 2465.5 1070.01C2465.37 1069.41 2465.23 1068.81 2465.1 1068.21C2464.97 1067.61 2464.83 1066.97 2464.7 1066.31C2464.63 1065.71 2464.53 1065.07 2464.4 1064.41C2464.33 1063.81 2464.27 1063.17 2464.2 1062.51C2464.13 1061.91 2464.1 1061.27 2464.1 1060.61C2464.03 1060.01 2464 1059.37 2464 1058.71C2464 1058.04 2464 1057.41 2464 1056.81C2464 1056.14 2464.03 1055.47 2464.1 1054.81C2464.17 1054.21 2464.2 1053.57 2464.2 1052.91C2464.27 1052.31 2464.37 1051.67 2464.5 1051.01C2464.57 1050.41 2464.67 1049.77 2464.8 1049.11C2464.87 1048.51 2464.97 1047.91 2465.1 1047.31C2465.3 1046.64 2465.47 1046.01 2465.6 1045.41C2465.73 1044.81 2465.9 1044.21 2466.1 1043.61C2466.3 1043.01 2466.5 1042.41 2466.7 1041.81C2466.9 1041.27 2467.1 1040.71 2467.3 1040.11C2473.1 1025.31 2484 1019.31 2495.2 1014.51Z" fill="#272A2D"/>
<path d="M2771.8 1020.61C2781.9 1020.21 2791 1020.51 2800 1027.21C2808.2 1033.21 2814.6 1042.71 2817.2 1054.81C2817.33 1055.41 2817.46 1056.04 2817.6 1056.71C2817.73 1057.37 2817.83 1058.04 2817.9 1058.71C2817.96 1059.37 2818.03 1060.01 2818.1 1060.61C2818.16 1061.27 2818.23 1061.94 2818.3 1062.61C2818.3 1063.27 2818.33 1063.94 2818.4 1064.61C2818.4 1065.27 2818.4 1065.94 2818.4 1066.61C2818.4 1067.27 2818.36 1067.94 2818.3 1068.61C2818.23 1069.27 2818.2 1069.94 2818.2 1070.61C2818.13 1071.21 2818.03 1071.84 2817.9 1072.51C2817.83 1073.17 2817.73 1073.84 2817.6 1074.51C2817.53 1075.17 2817.43 1075.81 2817.3 1076.41C2817.16 1077.07 2817 1077.71 2816.8 1078.31C2816.66 1078.97 2816.5 1079.61 2816.3 1080.21C2816.16 1080.81 2815.97 1081.41 2815.7 1082.01C2815.5 1082.61 2815.3 1083.21 2815.1 1083.81C2814.9 1084.41 2814.66 1085.01 2814.4 1085.61C2808 1100.11 2797.7 1105.81 2786 1109.91C2774.9 1110.71 2764.8 1110.11 2754.9 1102.61C2747.2 1096.61 2740.8 1087.01 2738.6 1075.21C2736.4 1063.71 2737.8 1051.71 2742.9 1041.91C2749.8 1028.51 2760.4 1023.41 2771.8 1020.61Z" fill="#1E1E22"/>
<path d="M1006.11 430.187C1085.71 392.787 1197.71 410.387 1272.51 458.087C1329.11 494.087 1383.31 553.487 1404.31 635.087C1407.61 648.187 1409.81 661.787 1411.91 675.387C1416.01 747.387 1405.11 807.787 1368.91 863.387C1353.21 887.587 1334.81 907.387 1314.61 924.487C1296.71 939.587 1263.41 954.087 1251.81 976.087C1237.51 1003.19 1231.81 1039.19 1220.61 1068.79C1200.61 1070.09 1180.11 1070.49 1160.01 1069.29L1155.11 1069.89C1125.11 1068.19 1094.81 1070.19 1064.81 1069.29H1062.01C1041.81 1070.59 1021.41 1069.79 1001.21 1069.69C991.211 1040.09 985.511 1005.59 972.011 978.387C959.911 954.087 917.611 934.687 897.311 916.787C880.811 902.087 866.711 883.587 852.911 864.687C843.611 847.687 834.711 830.387 827.711 811.387C807.211 755.087 804.411 696.087 819.811 636.987C840.111 558.787 890.611 497.887 945.511 462.687C960.411 448.387 988.311 437.887 1006.11 430.187Z" fill="#FEDB73"/>
<path d="M1001.41 487.687L1006.51 488.887C1002.51 494.387 996.812 497.787 992.012 502.387C980.612 513.287 969.212 524.387 958.712 536.887C929.712 571.587 903.912 614.587 886.712 661.287C879.712 680.287 874.612 700.387 867.312 719.087C858.712 664.587 859.912 638.487 880.412 589.087C911.112 534.587 954.212 509.087 1001.41 487.687Z" fill="#FEFEFE"/>
<path d="M1184.61 805.787C1192.71 781.287 1203.31 753.287 1223.21 742.987C1230.71 739.087 1239.31 738.487 1246.71 742.787C1252.81 746.387 1257.21 752.087 1259.41 760.487C1261.31 767.787 1259.81 775.987 1256.81 782.287C1248.71 798.787 1231.71 805.387 1217.91 808.587C1208.71 810.687 1199.21 811.787 1189.81 812.287C1166.31 890.387 1159.91 985.487 1160.01 1069.29L1155.11 1069.89C1153.41 997.587 1160.41 878.987 1182.31 813.187C1158.81 810.987 1133.11 808.887 1111.41 795.787C1090.21 810.487 1063.31 811.487 1040.01 811.687C1044.61 825.787 1047.81 840.787 1051.31 855.387C1054.61 875.387 1057.31 895.287 1059.61 915.487C1060.91 943.187 1069.21 1051.49 1064.81 1069.29H1062.01C1054.41 982.487 1059.21 894.287 1033.91 811.587C1012.81 810.187 981.012 808.987 965.512 786.687C961.612 780.987 959.111 773.887 959.311 766.087C959.511 759.287 962.011 752.987 965.811 748.487C971.911 741.087 980.612 738.587 988.612 739.487C1002.31 741.087 1012.81 752.787 1021.01 766.487C1027.91 777.987 1033.31 791.887 1037.91 805.187C1060.81 804.087 1083.71 802.787 1105.31 792.087C1099.01 784.187 1092.81 776.087 1092.21 763.787C1091.91 758.287 1093.71 752.887 1096.71 749.087C1100.91 743.887 1107.21 741.487 1112.91 741.987C1118.21 742.387 1124.11 745.487 1127.11 751.687C1129.41 756.387 1129.51 762.187 1128.41 767.487C1126.21 777.187 1121.01 785.387 1115.81 792.387C1138.41 800.187 1161.11 805.687 1184.61 805.787Z" fill="#FEFEFE"/>
<path d="M1106.51 746.887C1109.11 746.987 1112.61 746.787 1115.11 748.087C1118.81 749.887 1119.61 753.187 1121.21 757.387C1121.31 769.987 1117.71 776.787 1111.91 786.387C1109.01 785.987 1106.61 784.687 1104.41 782.187C1100.91 778.087 1099.61 773.487 1099.61 767.487C1099.51 758.087 1101.81 753.587 1106.51 746.887Z" fill="#FECD73"/>
<path d="M1230.01 745.587C1236.91 745.087 1243.81 747.087 1249.81 751.987C1250.08 752.187 1250.35 752.42 1250.61 752.687C1250.88 753.02 1251.14 753.354 1251.41 753.687C1251.68 753.954 1251.91 754.287 1252.11 754.687C1252.38 755.02 1252.61 755.387 1252.81 755.787C1253.01 756.187 1253.18 756.587 1253.31 756.987C1253.51 757.387 1253.68 757.787 1253.81 758.187C1253.94 758.654 1254.05 759.12 1254.11 759.587C1254.18 759.987 1254.24 760.42 1254.31 760.887C1255.01 766.187 1253.41 771.687 1251.31 776.087C1243.31 792.887 1231.41 797.387 1217.71 801.387C1209.21 803.187 1200.51 804.287 1191.91 805.587C1201.21 779.587 1209.51 758.487 1230.01 745.587Z" fill="#FECD73"/>
<path d="M981.612 745.687C985.812 745.287 989.812 745.087 993.912 746.687C1012.81 753.887 1022.91 783.887 1031.91 804.987C1025.61 804.887 1019.21 803.887 1012.81 803.287C998.112 800.987 977.612 796.487 968.112 779.787C965.812 775.687 964.412 771.487 965.212 766.187C966.812 756.287 975.512 749.987 981.612 745.687Z" fill="#FECD73"/>
<path d="M1111.41 795.787C1133.11 808.887 1158.81 810.987 1182.31 813.187C1160.41 878.987 1153.41 997.587 1155.11 1069.89C1125.11 1068.19 1094.81 1070.19 1064.81 1069.29C1069.21 1051.49 1060.91 943.187 1059.61 915.487C1057.31 895.287 1054.61 875.387 1051.31 855.387C1047.81 840.787 1044.61 825.787 1040.01 811.687C1063.31 811.487 1090.21 810.487 1111.41 795.787Z" fill="#FECD73"/>
<path d="M1059.91 1220.09C1065.51 1216.79 1154.21 1217.49 1163.41 1220.69C1152.01 1233.69 1135.21 1242.09 1120.41 1244.39C1097.61 1247.89 1077.41 1239.29 1059.91 1220.09Z" fill="#505458"/>
<path d="M1002.51 1176.89C1013.01 1182.69 1193.91 1181.59 1219.71 1179.69C1221.61 1187.89 1222.11 1196.89 1219.31 1204.89C1217.01 1211.49 1212.01 1214.99 1206.91 1216.59C1196.51 1219.79 1170.01 1215.39 1163.41 1220.69C1154.21 1217.49 1065.51 1216.79 1059.91 1220.09C1052.81 1213.89 1033.51 1218.19 1024.71 1217.79C1017.51 1217.49 1009.51 1216.49 1004.81 1208.29C999.811 1199.59 1001.01 1186.79 1002.51 1176.89Z" fill="#9FAFBD"/>
<path d="M989.911 1128.09C1011.21 1132.69 1035.41 1129.89 1057.11 1129.79L1175.41 1129.29C1194.31 1129.19 1213.91 1127.89 1232.81 1129.09C1238.91 1138.39 1241.41 1144.79 1243.11 1156.79C1238.41 1168.49 1234.01 1174.19 1224.31 1178.09C1222.81 1178.69 1221.31 1179.19 1219.71 1179.69C1193.91 1181.59 1013.01 1182.69 1002.51 1176.89C996.711 1175.79 991.511 1174.69 986.911 1169.49C983.011 1165.19 980.711 1159.19 980.611 1152.39C980.611 1141.79 984.711 1135.49 989.911 1128.09Z" fill="#9FAFBD"/>
<path d="M1002.51 1176.89L1004.71 1174.19C1073.01 1160.69 1175.11 1146.59 1243.11 1156.79C1238.41 1168.49 1234.01 1174.19 1224.31 1178.09C1222.81 1178.69 1221.31 1179.19 1219.71 1179.69C1193.91 1181.59 1013.01 1182.69 1002.51 1176.89Z" fill="#798FA2"/>
<path d="M1220.61 1068.79C1231.51 1071.99 1240.91 1075.89 1247.31 1089.39C1250.01 1094.99 1251.01 1100.99 1249.81 1107.49C1248.11 1116.69 1242.11 1122.49 1236.21 1126.79C1235.08 1127.59 1233.94 1128.35 1232.81 1129.09C1213.91 1127.79 1194.31 1129.19 1175.41 1129.29L1057.11 1129.79C1035.41 1129.89 1011.21 1132.69 989.911 1128.09C983.111 1123.19 976.511 1118.39 974.111 1107.89C972.611 1101.39 973.411 1094.69 976.011 1088.89C981.611 1076.69 991.311 1072.29 1001.21 1069.69C1021.41 1069.79 1041.81 1070.59 1062.01 1069.29H1064.81C1094.81 1070.19 1125.11 1068.19 1155.11 1069.89L1160.01 1069.29C1180.11 1070.49 1200.61 1070.09 1220.61 1068.79Z" fill="#798FA2"/>
</svg>
