<svg width="3072" height="4096" viewBox="0 0 3072 4096" fill="none" xmlns="http://www.w3.org/2000/svg">
<path d="M634.8 3408.9C613.1 3394.3 588.8 3383.8 566.4 3370.9C508.6 3337.6 451.1 3298.7 400.6 3248.2C377.9 3225.5 325.2 3170.5 322.2 3132C321.7 3125.4 323.1 3119 326.4 3114C332 3105.5 340.6 3102.2 348.7 3101.3C439.2 3090.9 614.1 3231.8 682.2 3306.2C687.9 3351.8 701 3389.8 725.8 3422.3C698.1 3422.2 669.5 3425.5 641.9 3422.3C647.4 3422.1 653.2 3422.7 658.5 3420.4C651.6 3414.4 642.6 3412.1 634.8 3408.9Z" fill="#E071A3"/>
<path d="M513.3 2629.8C549.3 2630.6 580.6 2668.4 604.1 2701.2C609.367 2708.47 614.433 2715.93 619.3 2723.6C624.233 2731.2 629 2739 633.6 2747C638.2 2755 642.633 2763.13 646.9 2771.4C651.1 2779.73 655.167 2788.2 659.1 2796.8C666.9 2813.7 673.8 2831.7 681.9 2848.2C692.8 2878.6 705 2907.8 714.3 2939.2C710.8 2971.8 702.8 3003.8 697.8 3036C687.4 3102.7 680.7 3171.7 679.7 3239.8C670.4 3224.8 662.4 3207.3 654.1 3191.3C629.5 3143.6 606.3 3094 584 3044.3C546.3 2960 470.2 2766.9 490.4 2668.9C494.4 2649.6 500.7 2639.7 513.3 2629.8Z" fill="#E071A3"/>
<path d="M2592 3035.8C2626.9 3012.4 2686.7 2975.4 2726.7 2992.4C2727.9 2992.9 2729.1 2993.5 2730.4 2994.1C2738.7 3005.4 2742.2 3015 2742.2 3031.1C2742.2 3052.3 2735.7 3073.4 2729.4 3092.5L2726.4 3103.7C2712.3 3135.1 2698 3164.3 2680.9 3193C2678 3197.1 2674.8 3201 2672.6 3205.9C2659.8 3223.9 2646.9 3241.7 2633.2 3258.5C2624.2 3269.6 2611.1 3281.7 2603.7 3294.4C2593.3 3305.13 2583.07 3316.1 2573 3327.3C2562.9 3336.6 2526.1 3368.8 2519.7 3378.7C2517.3 3380.7 2514.5 3382.5 2512.5 3385.1C2499.6 3395.9 2482.8 3407 2471.5 3420.5C2476.8 3421.5 2481.8 3422.1 2487.1 3422.3C2467.8 3424.5 2448.1 3423.3 2428.7 3423.9C2434.4 3413.8 2438.2 3404 2439.9 3391.6C2447.5 3338.5 2406.6 3270.5 2384.9 3229C2419.3 3190.8 2453.6 3154 2488.9 3117.4C2523.1 3090 2555.4 3057.8 2592 3035.7V3035.8Z" fill="#E071A3"/>
<path d="M2434.2 2734.4C2465.2 2684.2 2523.1 2571.2 2574.7 2566.4C2581.9 2565.7 2588.5 2568.4 2593.9 2574.8C2604.5 2587.6 2607 2608.2 2607.2 2626.3C2608.9 2755.9 2518 2969.4 2464.7 3076.1C2451.1 3103.2 2436.3 3129.4 2421.9 3155.8C2416.2 3166.3 2409.3 3177.1 2404.4 3188.4C2397.2 3200.1 2389.9 3211.8 2383 3223.9C2366.5 3196.7 2352.6 3163.1 2338.3 3133.5C2331.2 3118.3 2323.9 3103 2315.4 3089.2C2329.2 3081.27 2343.07 3073.5 2357 3065.9C2344.9 3049.7 2322.7 3023.6 2314.5 3004.2C2312 2998.1 2313.3 2996.1 2314.8 2990.1C2320.3 2983.5 2323.9 2969.1 2327.1 2960.3C2344.8 2925.8 2359.9 2887.2 2376.3 2851.4C2394.7 2811.5 2414.8 2773.4 2434.2 2734.4Z" fill="#E071A3"/>
<path d="M1477.9 428.7C1557.5 391.3 1669.5 408.9 1744.3 456.6C1800.9 492.6 1855.1 552 1876.1 633.6C1879.4 646.7 1881.6 660.3 1883.7 673.9C1887.8 745.9 1876.9 806.3 1840.7 861.9C1825 886.1 1806.6 905.9 1786.4 923C1768.5 938.1 1735.2 952.6 1723.6 974.6C1709.3 1001.7 1703.6 1037.7 1692.4 1067.3C1672.4 1068.6 1651.9 1069 1631.8 1067.8L1626.9 1068.4C1596.9 1066.7 1566.6 1068.7 1536.6 1067.8H1533.8C1513.6 1069.1 1493.2 1068.3 1473 1068.2C1463 1038.6 1457.3 1004.1 1443.8 976.9C1431.7 952.6 1389.4 933.2 1369.1 915.3C1352.6 900.6 1338.5 882.1 1324.7 863.2C1315.4 846.2 1306.5 828.9 1299.5 809.9C1279 753.6 1276.2 694.6 1291.6 635.5C1311.9 557.3 1362.4 496.4 1417.3 461.2C1432.2 446.9 1460.1 436.4 1477.9 428.7Z" fill="#FEDB73"/>
<path d="M1473.2 486.2L1478.3 487.4C1474.3 492.9 1468.6 496.3 1463.8 500.9C1452.4 511.8 1441 522.9 1430.5 535.4C1401.5 570.1 1375.7 613.1 1358.5 659.8C1351.5 678.8 1346.4 698.9 1339.1 717.6C1330.5 663.1 1331.7 637 1352.2 587.6C1382.9 533.1 1426 507.6 1473.2 486.2Z" fill="#FEFEFE"/>
<path d="M1656.4 804.3C1664.5 779.8 1675.1 751.8 1695 741.5C1702.5 737.6 1711.1 737 1718.5 741.3C1724.6 744.9 1729 750.6 1731.2 759C1733.1 766.3 1731.6 774.5 1728.6 780.8C1720.5 797.3 1703.5 803.9 1689.7 807.1C1680.5 809.2 1671 810.3 1661.6 810.8C1638.1 888.9 1631.7 984 1631.8 1067.8L1626.9 1068.4C1625.2 996.1 1632.2 877.5 1654.1 811.7C1630.6 809.5 1604.9 807.4 1583.2 794.3C1562 809 1535.1 810 1511.8 810.2C1516.4 824.3 1519.6 839.3 1523.1 853.9C1526.4 873.9 1529.1 893.8 1531.4 914C1532.7 941.7 1541 1050 1536.6 1067.8H1533.8C1526.2 981 1531 892.8 1505.7 810.1C1484.6 808.7 1452.8 807.5 1437.3 785.2C1433.4 779.5 1430.9 772.4 1431.1 764.6C1431.3 757.8 1433.8 751.5 1437.6 747C1443.7 739.6 1452.4 737.1 1460.4 738C1474.1 739.6 1484.6 751.3 1492.8 765C1499.7 776.5 1505.1 790.4 1509.7 803.7C1532.6 802.6 1555.5 801.3 1577.1 790.6C1570.8 782.7 1564.6 774.6 1564 762.3C1563.7 756.8 1565.5 751.4 1568.5 747.6C1572.7 742.4 1579 740 1584.7 740.5C1590 740.9 1595.9 744 1598.9 750.2C1601.2 754.9 1601.3 760.7 1600.2 766C1598 775.7 1592.8 783.9 1587.6 790.9C1610.2 798.7 1632.9 804.2 1656.4 804.3Z" fill="#FEFEFE"/>
<path d="M1578.3 745.4C1580.9 745.5 1584.4 745.3 1586.9 746.6C1590.6 748.4 1591.4 751.7 1593 755.9C1593.1 768.5 1589.5 775.3 1583.7 784.9C1580.8 784.5 1578.4 783.2 1576.2 780.7C1572.7 776.6 1571.4 772 1571.4 766C1571.3 756.6 1573.6 752.1 1578.3 745.4Z" fill="#FECD73"/>
<path d="M1701.8 744.1C1708.7 743.6 1715.6 745.6 1721.6 750.5C1721.87 750.7 1722.13 750.933 1722.4 751.2C1722.67 751.533 1722.93 751.867 1723.2 752.2C1723.47 752.467 1723.7 752.8 1723.9 753.2C1724.17 753.533 1724.4 753.9 1724.6 754.3C1724.8 754.7 1724.97 755.1 1725.1 755.5C1725.3 755.9 1725.47 756.3 1725.6 756.7C1725.73 757.167 1725.83 757.633 1725.9 758.1C1725.97 758.5 1726.03 758.933 1726.1 759.4C1726.8 764.7 1725.2 770.2 1723.1 774.6C1715.1 791.4 1703.2 795.9 1689.5 799.9C1681 801.7 1672.3 802.8 1663.7 804.1C1673 778.1 1681.3 757 1701.8 744.1Z" fill="#FECD73"/>
<path d="M1453.4 744.2C1457.6 743.8 1461.6 743.6 1465.7 745.2C1484.6 752.4 1494.7 782.4 1503.7 803.5C1497.4 803.4 1491 802.4 1484.6 801.8C1469.9 799.5 1449.4 795 1439.9 778.3C1437.6 774.2 1436.2 770 1437 764.7C1438.6 754.8 1447.3 748.5 1453.4 744.2Z" fill="#FECD73"/>
<path d="M1583.2 794.3C1604.9 807.4 1630.6 809.5 1654.1 811.7C1632.2 877.5 1625.2 996.1 1626.9 1068.4C1596.9 1066.7 1566.6 1068.7 1536.6 1067.8C1541 1050 1532.7 941.7 1531.4 914C1529.1 893.8 1526.4 873.9 1523.1 853.9C1519.6 839.3 1516.4 824.3 1511.8 810.2C1535.1 810 1562 809 1583.2 794.3Z" fill="#FECD73"/>
<path d="M2085.4 3220.6C2162.6 3178.4 2237.8 3130.3 2315.3 3089.3C2323.9 3103 2331.2 3118.3 2338.3 3133.5C2352.6 3163.1 2366.5 3196.7 2383 3223.9L2384.9 3229C2406.6 3270.5 2447.5 3338.5 2439.9 3391.6C2438.2 3404 2434.4 3413.8 2428.7 3423.9C2448.1 3423.3 2467.8 3424.5 2487.1 3422.3C2582.2 3422.2 2588.2 3429.9 2665.6 3498.1C2689.6 3519.3 2715.6 3539.3 2738.1 3563.2C2745.7 3571.2 2752.7 3579.2 2753.4 3592.9C2753.8 3600.5 2751.4 3607.4 2747.7 3612.8C2737.9 3627.4 2722.2 3630.9 2708.3 3631.9C2674.7 3634.3 2640.1 3632 2606.4 3631.8H2429.8L1837 3632L873.4 3631.8H542.9C489 3631.8 434.9 3633.4 381 3632.1C368.6 3631.8 354.4 3631.2 342.9 3624.6C338.8 3622.3 335 3619.2 331.7 3615.1C327.6 3610 324.5 3602.8 324.6 3595.1C324.6 3585.1 328.4 3577.2 333.7 3570.4C352.5 3545.9 381.3 3525.1 403.4 3505.4C426.4 3484.9 449.5 3462.3 474.4 3446C524.5 3413.2 587.5 3422.2 641.9 3422.3C669.5 3425.5 698.1 3422.2 725.8 3422.3C731.9 3427 737.6 3434.7 743.2 3440.5C744.133 3441.5 745.1 3442.47 746.1 3443.4C747.1 3444.4 748.133 3445.33 749.2 3446.2C750.2 3447.13 751.2 3448.03 752.2 3448.9C753.267 3449.77 754.333 3450.6 755.4 3451.4C756.467 3452.27 757.533 3453.1 758.6 3453.9C759.667 3454.63 760.767 3455.37 761.9 3456.1C762.967 3456.83 764.067 3457.53 765.2 3458.2C766.333 3458.87 767.467 3459.53 768.6 3460.2C769.733 3460.8 770.867 3461.4 772 3462C773.133 3462.6 774.3 3463.17 775.5 3463.7C776.633 3464.23 777.8 3464.73 779 3465.2C780.133 3465.67 781.3 3466.1 782.5 3466.5C783.7 3466.97 784.9 3467.4 786.1 3467.8C787.3 3468.13 788.5 3468.47 789.7 3468.8C790.9 3469.13 792.1 3469.43 793.3 3469.7C794.5 3469.97 795.7 3470.2 796.9 3470.4C837.4 3478 871.9 3452.3 903.2 3421.1C911.6 3411.7 920 3401.4 929.4 3393.7C931.4 3400.1 933.8 3406.7 934.7 3413.6L937.5 3421.8L1188 3422.2C1190.7 3424.2 1505.3 3422.2 1542 3422.8C1527.5 3431.2 1497.5 3449.2 1491.7 3470.3C1489.8 3477.3 1488.8 3487.6 1491.1 3494.7C1491.3 3495.4 1491.6 3496 1491.9 3496.7L1494.3 3497.6L1495.8 3495.7C1495.4 3487.8 1494.5 3480 1497.2 3472.6C1504.9 3451.5 1528.8 3438.7 1544.5 3430.9C1562.4 3415 1589.8 3406.7 1610.5 3398.1C1647.5 3381.3 1673.8 3381.2 1711.4 3395.1C1731.1 3397.4 1752.5 3405.9 1771 3415C1792.6 3404 1815.8 3396.4 1838 3387.9C1874.2 3373.97 1910.67 3361.33 1947.4 3350C1984.13 3338.73 2021.03 3328.8 2058.1 3320.2C2063.4 3319.5 2069.2 3319.4 2074 3316.3C2075.53 3288.17 2077.3 3260.07 2079.3 3232L2079.1 3224.7L2085.4 3220.6Z" fill="#3C3B8C"/>
<path d="M929.4 3393.7C931.4 3400.1 933.8 3406.7 934.7 3413.6L937.5 3421.8C926.1 3421.73 914.667 3421.5 903.2 3421.1C911.6 3411.7 920 3401.4 929.4 3393.7Z" fill="#798FA2"/>
<path d="M2085.4 3220.6C2162.6 3178.4 2237.8 3130.3 2315.3 3089.3C2323.9 3103 2331.2 3118.3 2338.3 3133.5C2352.6 3163.1 2366.5 3196.7 2383 3223.9L2384.9 3229C2406.6 3270.5 2447.5 3338.5 2439.9 3391.6C2438.2 3404 2434.4 3413.8 2428.7 3423.9C2389.3 3474.9 2280.1 3503.1 2225.1 3509.9C2217.1 3511.7 2209.2 3513.4 2201.2 3514.3C2194.3 3515.7 2187.2 3517.8 2180.3 3517.7C2147.8 3525 2083.2 3535.4 2050.8 3534.2C1998.4 3543.1 1935.8 3542.8 1882.5 3543C1863.5 3543 1832.6 3539.1 1814.7 3543C1809.8 3544.1 1804.8 3547.7 1800.3 3550.3C1772.6 3566.4 1730.9 3572.2 1701.9 3559.9C1674.6 3570.8 1644.3 3586.6 1616.2 3591.5C1600.9 3597.8 1585.1 3600.4 1570.6 3590.2C1562.4 3576.3 1555.2 3578.7 1546.4 3569.1L1539.9 3560.3C1537.6 3553.4 1537.4 3550.5 1532.4 3546.5L1528.1 3543.8C1520.4 3538.7 1516.2 3533.6 1513.2 3522.7C1512.4 3519.8 1511.8 3517.6 1510.6 3514.9C1510.3 3514.2 1510 3513.6 1509.7 3512.9C1504.8 3508.8 1501.2 3505.2 1498.1 3498.6L1495.8 3495.7C1495.4 3487.8 1494.5 3480 1497.2 3472.6C1504.9 3451.5 1528.8 3438.7 1544.5 3430.9C1562.4 3415 1589.8 3406.7 1610.5 3398.1C1647.5 3381.3 1673.8 3381.2 1711.4 3395.1C1731.1 3397.4 1752.5 3405.9 1771 3415C1792.6 3404 1815.8 3396.4 1838 3387.9C1874.2 3373.97 1910.67 3361.33 1947.4 3350C1984.13 3338.73 2021.03 3328.8 2058.1 3320.2C2063.4 3319.5 2069.2 3319.4 2074 3316.3C2075.53 3288.17 2077.3 3260.07 2079.3 3232L2079.1 3224.7L2085.4 3220.6Z" fill="#F5A88B"/>
<path d="M1532.4 3546.5C1554.9 3518 1582.5 3504.4 1611 3490.3C1622.8 3484.4 1635.6 3476.2 1648.4 3476.4L1649.4 3478.5C1643.9 3485 1635.1 3487.5 1628.3 3490.9C1605.8 3502.3 1561.4 3520.7 1545.9 3545.3C1543.1 3549.8 1542.3 3555.6 1539.9 3560.3C1537.6 3553.4 1537.4 3550.5 1532.4 3546.5Z" fill="#B55347"/>
<path d="M1598 3543.3C1612.1 3534.7 1664.9 3507 1677.7 3511.3L1678.2 3513.6C1673.5 3517.2 1606.8 3548.9 1603.8 3549.3C1594.3 3556.4 1576.4 3565 1572.2 3579C1571.4 3581.5 1571.1 3584.9 1570.8 3587.5L1570.6 3590.2C1562.4 3576.3 1555.3 3578.7 1546.4 3569C1549.2 3568.8 1550.3 3569 1553 3570.4C1554.8 3571.4 1558.2 3573.2 1560.3 3572.5C1564.8 3571.2 1587.1 3549.2 1596.1 3544.3L1598 3543.3Z" fill="#B55347"/>
<path d="M1509.7 3512.9C1526.1 3474.4 1577.4 3453 1607.3 3442.2C1611.23 3440.73 1615.23 3439.47 1619.3 3438.4C1623.3 3437.4 1627.33 3436.6 1631.4 3436L1629.4 3437.3C1608.3 3451.1 1526.7 3483.7 1519.9 3513.7C1517.6 3524.1 1524.2 3535.5 1528.2 3543.8C1520.5 3538.7 1516.2 3533.6 1513.2 3522.7C1512.4 3519.8 1511.8 3517.6 1510.6 3514.9C1510.3 3514.2 1510 3513.6 1509.7 3512.9Z" fill="#B55347"/>
<path d="M2204.4 3294.9C2245.1 3291.7 2294 3293.4 2333.6 3307.1C2339 3308.9 2344.3 3310.8 2349.5 3313.1C2330.9 3312.7 2311.8 3309 2293.1 3307.4C2259.4 3302.7 2224.8 3302.7 2190.9 3303.9C2181.2 3304.2 2148.4 3309.7 2141.6 3305.3C2157.5 3296.6 2186.7 3296.2 2204.4 3294.9Z" fill="#B55347"/>
<path d="M2079.1 3224.7L2085.4 3220.6C2095.3 3234.9 2104.4 3250 2113.6 3265C2121.6 3279.1 2129.5 3293.6 2138.8 3306.2L2085.4 3314.8C2081.6 3315.5 2077.8 3315.9 2074 3316.3C2075.53 3288.17 2077.3 3260.07 2079.3 3232L2079.1 3224.7Z" fill="#8CA0CA"/>
<path d="M2085.4 3220.6C2162.6 3178.4 2237.8 3130.3 2315.3 3089.3C2323.9 3103 2331.2 3118.3 2338.3 3133.5C2284.6 3169.1 2227.3 3197.4 2172.2 3229.2C2153.4 3240.1 2130.3 3249.7 2113.6 3265C2104.4 3250 2095.3 3234.9 2085.4 3220.6Z" fill="#D28376"/>
<path d="M942.3 2306.5C946.9 2289.4 945.6 2268.6 947.4 2250.5C952 2260.3 966.6 2266.6 974.5 2272.9C986.3 2282.4 996.8 2295.3 1006.3 2308.6C1032 2344.4 1051.1 2385.2 1073.1 2424.8C1123 2514.7 1192.9 2564.1 1273.5 2588.8C1291.1 2594.2 1311.3 2596.4 1327.9 2605C1366.8 2594 1406.3 2584 1446 2578.2C1436.4 2610.3 1435.1 2642.9 1445.6 2675.1C1460.3 2720.2 1493.9 2751.3 1527.3 2768.6C1587.5 2799.7 1658.3 2800.7 1717.5 2765.6C1724.97 2761.2 1732.27 2756.37 1739.4 2751.1C1753.5 2737.4 1766.2 2722.4 1775.7 2702.8C1795.2 2662.8 1797.6 2618 1790.3 2572.3C1811.37 2575.9 1832.4 2579.9 1853.4 2584.3C1874.8 2583.9 1898.8 2574.6 1920.1 2569.8C1959.23 2561.07 1998.3 2551.87 2037.3 2542.2C2054.1 2538 2073.5 2535.8 2089.3 2528C2090.7 2510.73 2092.8 2493.63 2095.6 2476.7C2100.4 2448.9 2109 2409.9 2128.6 2394.5C2136.5 2388.3 2145.6 2387.1 2154.4 2390.4C2186.8 2402.9 2211.5 2459.7 2226.5 2496.3C2270 2611.6 2287.4 2735.8 2290.9 2864.1C2291.8 2898.2 2292.6 2932.9 2290.5 2967C2294.4 2973.2 2298.3 2980.1 2302.8 2985.4C2307.1 2985.9 2311.3 2984.8 2314.4 2989.2C2314.6 2989.5 2314.7 2989.8 2314.8 2990.1C2313.3 2996.1 2312 2998.1 2314.5 3004.2C2322.7 3023.6 2344.9 3049.7 2357 3065.9C2343.07 3073.5 2329.17 3081.27 2315.3 3089.2C2237.8 3130.3 2162.6 3178.4 2085.4 3220.6L2079.1 3224.7L2079.3 3232C2077.3 3260.07 2075.53 3288.17 2074 3316.3C2069.2 3319.4 2063.4 3319.5 2058.1 3320.2C2021.03 3328.8 1984.13 3338.73 1947.4 3350C1910.67 3361.33 1874.23 3373.93 1838.1 3387.8C1815.8 3396.4 1792.6 3404 1771 3415C1752.5 3405.9 1731.1 3397.4 1711.4 3395.1C1673.8 3381.2 1647.5 3381.3 1610.5 3398.1C1589.8 3406.7 1562.5 3415 1544.5 3430.9C1528.8 3438.7 1504.9 3451.5 1497.2 3472.6C1494.5 3480 1495.4 3487.8 1495.8 3495.7L1494.3 3497.6L1491.9 3496.7C1491.6 3496 1491.3 3495.4 1491.1 3494.7C1488.8 3487.6 1489.8 3477.3 1491.7 3470.3C1497.5 3449.2 1527.5 3431.2 1542 3422.8C1505.3 3422.2 1190.7 3424.2 1188 3422.2L937.5 3421.8L934.7 3413.6C933.8 3406.7 931.4 3400.1 929.4 3393.7C920 3401.4 911.6 3411.7 903.2 3421.1C871.9 3452.3 837.4 3478 796.9 3470.4C795.7 3470.2 794.5 3469.97 793.3 3469.7C792.1 3469.43 790.9 3469.13 789.7 3468.8C788.5 3468.47 787.3 3468.1 786.1 3467.7C784.9 3467.37 783.7 3466.97 782.5 3466.5C781.3 3466.1 780.133 3465.67 779 3465.2C777.8 3464.73 776.633 3464.23 775.5 3463.7C774.3 3463.17 773.133 3462.6 772 3462C770.867 3461.4 769.733 3460.8 768.6 3460.2C767.467 3459.53 766.333 3458.87 765.2 3458.2C764.067 3457.53 762.967 3456.83 761.9 3456.1C760.767 3455.37 759.667 3454.6 758.6 3453.8C757.533 3453.07 756.467 3452.27 755.4 3451.4C754.333 3450.6 753.267 3449.77 752.2 3448.9C751.2 3448.03 750.2 3447.13 749.2 3446.2C748.133 3445.33 747.1 3444.4 746.1 3443.4C745.1 3442.47 744.133 3441.5 743.2 3440.5C737.6 3434.7 731.9 3427 725.8 3422.3C701 3389.8 687.9 3351.8 682.2 3306.2C683.5 3285.3 680.5 3260.9 679.7 3239.8C680.7 3171.7 687.4 3102.7 697.8 3036C702.8 3003.8 710.8 2971.8 714.3 2939.2C721.6 2910.7 725.7 2879.9 731 2850.6C739.133 2808 747.667 2765.53 756.6 2723.2C762.8 2693.8 768.4 2663.6 776.5 2635.1C762.5 2615.8 751.6 2590.7 742.5 2567C726.7 2525.7 698.1 2424.6 710.3 2379.3C712.4 2371.6 715.9 2366.3 721.5 2363L731.7 2355.2C732.2 2351.7 732.9 2348.3 733.9 2345.1C737.7 2332.7 745.6 2324.1 754.7 2319.1C764.4 2311.8 774.7 2307.6 785.4 2303.7C792.8 2294.7 795.8 2284.6 805.2 2277.1C819.9 2268.8 833.4 2266.2 849.2 2264C885 2266.8 915 2272.5 942.3 2306.5Z" fill="#272A2D"/>
<path d="M1193.8 3151.8L1196.3 3151.5C1199.5 3156.4 1199.5 3162.8 1199.8 3169C1201.3 3206.9 1197.9 3245.3 1197.2 3283.3C1196.3 3323.7 1197.7 3365.1 1195.2 3405.4C1194.8 3410.6 1194.6 3414.9 1192.6 3419.5L1190 3419.4L1187.2 3414.3C1189.4 3384.4 1188.3 3352.8 1188.9 3322.7L1193.8 3151.8Z" fill="#1E1E22"/>
<path d="M1790.3 2572.3C1811.37 2575.9 1832.4 2579.9 1853.4 2584.3C1901 2596.8 1948.8 2608.3 1994 2632.9C2010.1 2641.6 2024.9 2653.1 2040.5 2662.9C2008 2688.6 1976.3 2714.6 1957.5 2760.6C1954.3 2768.4 1953 2777.5 1950.5 2785.7C1946.1 2799.8 1941.8 2813.2 1938.9 2828.1C1932.1 2864 1931.1 2914.5 1940.6 2949.5C1937.2 2949 1937.1 2947.2 1935 2943.9C1923.6 2873.7 1927.7 2808 1957.7 2746.4C1975.6 2709.6 2000.4 2683.2 2029.3 2662.9C1968.9 2622.1 1900 2599.2 1833.1 2587.8C1825.4 2586.4 1811.8 2581.8 1804.6 2584.4C1803.8 2584.7 1803 2585.3 1802.3 2585.7C1799.6 2625.9 1801.2 2690.5 1776.5 2720.9C1776 2721.6 1775.3 2721.9 1774.7 2722.5L1773.3 2723.7C1768.1 2728.5 1748.8 2751.6 1744.3 2752.1C1742.7 2752.3 1741 2751.4 1739.4 2751C1753.5 2737.4 1766.2 2722.4 1775.7 2702.8C1795.2 2662.8 1797.6 2618 1790.3 2572.3Z" fill="#1E1E22"/>
<path d="M2069.3 3310.9C2025.7 3225.3 1985.8 3128.4 1963.9 3028.5C1961.2 3016.5 1956.3 3000 1957.8 2987.7L1959 2986.8C1963.5 2995.8 1964.7 3008.9 1967.4 3019.2C1972.2 3037.8 1979 3058.4 1985.6 3076C1994.7 3100.3 2017.4 3136.1 2023.7 3156.2C2037.9 3181.73 2051.43 3207.83 2064.3 3234.5L2079.1 3224.7L2079.3 3232C2077.3 3260.07 2075.53 3288.17 2074 3316.3C2069.2 3319.4 2063.4 3319.5 2058.1 3320.2L2050.7 3319L2051 3317.8C2057.13 3315.6 2063.23 3313.3 2069.3 3310.9Z" fill="#1E1E22"/>
<path d="M1327.9 2605C1366.8 2594 1406.3 2584 1446 2578.2C1436.4 2610.3 1435.1 2642.9 1445.6 2675.1C1460.3 2720.2 1493.9 2751.3 1527.3 2768.6C1587.5 2799.7 1658.3 2800.7 1717.5 2765.6C1724.97 2761.2 1732.27 2756.37 1739.4 2751.1C1741 2751.4 1742.7 2752.3 1744.3 2752.1C1748.8 2751.6 1768.1 2728.5 1773.3 2723.7L1774.7 2722.5C1763.6 2751.2 1726.5 2774 1704.5 2783.3C1640.7 2810.4 1561.2 2805.1 1501.4 2762.9C1469.7 2740.6 1446.1 2706.8 1435.5 2660.6C1430 2636.3 1430.5 2613.9 1433.4 2589.1C1353.3 2601.3 1255.9 2627.1 1185.9 2682.3C1169.9 2694.8 1154.9 2710.7 1140.1 2725.5C1111.1 2754.3 1083.1 2783.7 1055.5 2815C1033.3 2840.2 1012.5 2866.4 991.1 2892.8C980.2 2906.3 967.7 2919.4 958.1 2934.5C955.8 2938.2 954.2 2941 953.9 2945.9C965.4 2961.1 983.8 2972.7 997.7 2984.2L1095.9 3065.8C1121.6 3087.3 1145.7 3112 1171.5 3133.1C1177 3137.6 1181.1 3140.3 1187.2 3142.8C1190.7 3144.3 1191.1 3145.1 1192.9 3149.1C1190.8 3152.3 1188.8 3155.8 1186.5 3158.8L1183.6 3156.8C1150.6 3124.6 1115.3 3095.5 1080.8 3066.3C1032.87 3025.43 984.433 2985.53 935.5 2946.6C1014.2 2839.9 1134.9 2687.9 1240.9 2635.4C1270.2 2626 1298.2 2613.1 1327.9 2605Z" fill="#1E1E22"/>
<path d="M1853.4 2584.3C1874.7 2583.9 1898.8 2574.6 1920.1 2569.8C1959.23 2561.07 1998.3 2551.87 2037.3 2542.2C2054.1 2538 2073.5 2535.8 2089.3 2528C2088.1 2556.3 2086.7 2584.5 2086.5 2612.8C2086.4 2629.2 2090.2 2696 2086.5 2705.5C2075.7 2693.8 2046.7 2674 2040.5 2662.9C2024.9 2653.1 2010.1 2641.6 1994 2632.9C1948.8 2608.3 1901 2596.8 1853.4 2584.3Z" fill="#8CA0CA"/>
<path d="M929.8 2946.9C947 2928.2 964.2 2897.5 981 2876.2C1045 2794.6 1116.1 2711.5 1195 2656.6C1205.9 2649 1229.1 2630.5 1240.9 2635.4C1134.9 2687.9 1014.2 2839.9 935.5 2946.6C984.433 2985.53 1032.87 3025.43 1080.8 3066.3C1115.3 3095.5 1150.6 3124.6 1183.6 3156.8C1164 3172.8 1148.5 3203.3 1130.9 3223.4C1124.3 3217.1 1117.8 3210.3 1110.9 3204.7C1088.3 3188.3 1066.3 3167.6 1044.8 3148.9C1008.13 3117.5 971.767 3085.47 935.7 3052.8L930.4 3046.7C933.8 3022.3 930.3 2973.8 929.8 2946.9Z" fill="#FEFEFE"/>
<path d="M2302.8 2985.4C2307.1 2985.9 2311.3 2984.8 2314.4 2989.2C2314.6 2989.5 2314.6 2989.8 2314.8 2990.1C2313.3 2996.1 2312 2998.1 2314.5 3004.2C2322.7 3023.6 2344.9 3049.7 2357 3065.9C2343.07 3073.5 2329.17 3081.27 2315.3 3089.2C2237.8 3130.3 2162.6 3178.4 2085.4 3220.6L2079.1 3224.7L2064.3 3234.5C2051.43 3207.83 2037.9 3181.73 2023.7 3156.2C2056.5 3139.5 2088.7 3119.5 2120.9 3100.9C2180.9 3066.2 2240.8 3031.8 2301.7 3000.7C2304.8 2999.1 2305.9 2997.6 2306.9 2993.4L2302.8 2985.4Z" fill="#FEFEFE"/>
<path d="M1192.9 3149.1L1193.8 3151.9L1188.9 3322.7C1188.3 3352.8 1189.4 3384.4 1187.2 3414.3L1188 3422.2L937.5 3421.8L934.7 3413.6C933.8 3406.7 931.4 3400.1 929.4 3393.7C946 3382.1 962.5 3361.8 977.5 3346.5C1006.5 3316.9 1036.6 3288 1064.1 3256C1079.5 3238.6 1094.7 3220.7 1110.9 3204.7C1117.8 3210.3 1124.3 3217.1 1130.9 3223.4C1148.5 3203.3 1164 3172.8 1183.6 3156.8L1186.5 3158.8C1188.8 3155.8 1190.8 3152.3 1192.9 3149.1Z" fill="#8CA0CA"/>
<path d="M2089.3 2528C2090.7 2510.73 2092.8 2493.63 2095.6 2476.7C2100.4 2448.9 2109 2409.9 2128.6 2394.5C2136.5 2388.3 2145.6 2387.1 2154.4 2390.4C2186.8 2402.9 2211.5 2459.7 2226.5 2496.3C2270 2611.6 2287.4 2735.8 2290.9 2864.1C2291.8 2898.2 2292.6 2932.9 2290.5 2967C2283.03 2954.8 2275.43 2942.73 2267.7 2930.8C2259.97 2918.87 2252.1 2907.1 2244.1 2895.5C2236.1 2883.9 2227.93 2872.47 2219.6 2861.2C2211.33 2849.93 2202.97 2838.83 2194.5 2827.9C2185.97 2817.03 2177.3 2806.3 2168.5 2795.7C2159.77 2785.1 2150.9 2774.7 2141.9 2764.5C2132.9 2754.3 2123.77 2744.27 2114.5 2734.4C2105.23 2724.6 2095.9 2714.97 2086.5 2705.5C2090.2 2696 2086.4 2629.2 2086.5 2612.8C2086.7 2584.5 2088.1 2556.3 2089.3 2528Z" fill="#E071A3"/>
<path d="M942.3 2306.5C946.9 2289.4 945.6 2268.6 947.4 2250.5C952 2260.3 966.6 2266.6 974.5 2272.9C986.3 2282.4 996.8 2295.3 1006.3 2308.6C1032 2344.4 1051.1 2385.2 1073.1 2424.8C1123 2514.7 1192.9 2564.1 1273.5 2588.8C1291.1 2594.2 1311.3 2596.4 1327.9 2605C1298.2 2613.1 1270.2 2626 1240.9 2635.4C1229.1 2630.5 1205.9 2649 1195 2656.6C1116.1 2711.5 1045 2794.6 981 2876.2C964.2 2897.5 947 2928.2 929.8 2946.9C930.3 2973.8 933.8 3022.3 930.4 3046.7L935.7 3052.8C971.767 3085.47 1008.13 3117.5 1044.8 3148.9C1066.3 3167.6 1088.3 3188.3 1110.9 3204.7C1094.7 3220.7 1079.5 3238.6 1064.1 3256C1036.6 3288 1006.5 3316.9 977.5 3346.5C962.5 3361.8 946 3382.1 929.4 3393.7C920 3401.4 911.6 3411.7 903.2 3421.1C871.9 3452.3 837.4 3478 796.9 3470.4C795.7 3470.2 794.5 3469.97 793.3 3469.7C792.1 3469.43 790.9 3469.13 789.7 3468.8C788.5 3468.47 787.3 3468.13 786.1 3467.8C784.9 3467.4 783.7 3466.97 782.5 3466.5C781.3 3466.1 780.133 3465.67 779 3465.2C777.8 3464.73 776.633 3464.23 775.5 3463.7C774.3 3463.17 773.133 3462.6 772 3462C770.867 3461.4 769.733 3460.8 768.6 3460.2C767.467 3459.53 766.333 3458.87 765.2 3458.2C764.067 3457.53 762.967 3456.83 761.9 3456.1C760.767 3455.37 759.667 3454.6 758.6 3453.8C757.533 3453.07 756.467 3452.27 755.4 3451.4C754.333 3450.6 753.267 3449.77 752.2 3448.9C751.2 3448.03 750.2 3447.13 749.2 3446.2C748.133 3445.33 747.1 3444.4 746.1 3443.4C745.1 3442.47 744.133 3441.5 743.2 3440.5C737.6 3434.7 731.9 3427 725.8 3422.3C701 3389.8 687.9 3351.8 682.2 3306.2C683.5 3285.3 680.5 3260.9 679.7 3239.8C680.7 3171.7 687.4 3102.7 697.8 3036C702.8 3003.8 710.8 2971.8 714.3 2939.2C721.6 2910.7 725.7 2879.9 731 2850.6C739.133 2808 747.667 2765.53 756.6 2723.2C762.8 2693.8 768.4 2663.6 776.5 2635.1C762.5 2615.8 751.6 2590.7 742.5 2567C726.7 2525.8 698.1 2424.6 710.3 2379.3C712.4 2371.6 715.9 2366.3 721.5 2363L731.7 2355.2C732.2 2351.7 732.9 2348.3 733.9 2345.1C737.7 2332.7 745.6 2324.1 754.7 2319.1C764.4 2311.8 774.7 2307.6 785.4 2303.7C792.8 2294.7 795.8 2284.6 805.2 2277.1C819.9 2268.8 833.4 2266.2 849.2 2264C885 2266.8 915 2272.5 942.3 2306.5Z" fill="#F5A88B"/>
<path d="M930.4 3046.7L935.7 3052.8C938.3 3103 936.6 3152.9 937.7 3203.1C936.7 3219.7 935.9 3236.3 933.9 3252.8C932 3269.4 929.5 3290.1 924.7 3305.7C921 3291.9 925.4 3262.6 926.5 3247.2C927.3 3216.1 926.4 3061.9 930.4 3046.7Z" fill="#B55347"/>
<path d="M935.7 3052.8C971.767 3085.47 1008.13 3117.5 1044.8 3148.9C1066.3 3167.6 1088.3 3188.3 1110.9 3204.7C1094.7 3220.7 1079.5 3238.6 1064.1 3256C1051.8 3240.5 1035.9 3227.9 1021.7 3215.6C994.3 3191.7 965.7 3169 939.4 3142.8C939.4 3162.6 940.5 3183.7 937.7 3203.1C936.6 3152.9 938.3 3103 935.7 3052.8Z" fill="#D28376"/>
<path d="M849.2 2264C885 2266.8 915 2272.5 942.3 2306.5C951 2320.4 954.3 2333.3 958.3 2350.3C957.7 2350.9 957.1 2351.6 956.5 2352.2C949.2 2359.6 935.7 2361.6 926.9 2366.5C914.4 2373.4 889.7 2402.4 887.4 2421.1C886.8 2425.6 887 2430.1 889.3 2433.8C892.7 2439.2 898.5 2442.4 903.7 2442.7C916.1 2443.3 947.1 2406.6 952 2410.7C945.6 2434.1 893.8 2460.8 877.8 2479.4C873.1 2486.8 868.5 2494.5 865.4 2503.3C857.2 2526.7 858.5 2556.7 841.6 2573C838.1 2576.3 833.5 2580.5 829 2579.6C833.2 2572.9 838.6 2567.5 842.7 2560.7C850.2 2548.3 849 2529 852.2 2514.2C857 2492.4 866.4 2474.5 881.2 2463.1L889.8 2454.7C880.133 2455.5 870.433 2456.13 860.7 2456.6C846.1 2469.6 831.4 2484 812.7 2479.7C807.9 2478.5 803.5 2475.5 799.2 2472.7C792.3 2469.4 786 2466.1 779.7 2461.1C777.7 2460.7 778.7 2461 776 2459.4C768.6 2455 763.1 2448.2 760.5 2437.9C758.2 2429.1 759.7 2423.7 762.5 2415.7C768.4 2408.2 773.9 2403.4 782.3 2403.7C791 2404 799.9 2410.4 805.5 2419.1C808 2422.8 809.5 2426 810.2 2430.9L808.9 2435.1C805.7 2436 805.1 2436.6 802.4 2434C795 2427 792.2 2414.4 781.2 2415.5C776.5 2415.9 772.4 2418.5 768.3 2421.4C767 2426.9 766.2 2430.2 768.1 2435.9C772 2447.9 786 2454.6 794.6 2458.9C803 2461.9 812.6 2462.7 821.1 2461.3C830.3 2459.8 839.1 2454.6 844.6 2444.3C849.7 2434.7 851 2423 849.2 2411.6C845.6 2388.2 833 2373.8 819 2361.1C793.8 2349.1 773.2 2350.8 747.3 2357.2C739.7 2359.1 731.8 2362.2 724 2362.8C723.2 2362.87 722.367 2362.93 721.5 2363L731.7 2355.2C732.2 2351.7 732.9 2348.3 733.9 2345.1C737.7 2332.7 745.6 2324.1 754.7 2319.1C764.4 2311.8 774.7 2307.6 785.4 2303.7C792.8 2294.7 795.8 2284.6 805.2 2277.1C819.9 2268.8 833.4 2266.2 849.2 2264Z" fill="#B55347"/>
<path d="M799.2 2472.7C805.2 2472.1 811.3 2472.6 817.3 2472.1C831.3 2470.9 847 2461.2 854.8 2445.2C857.7 2439.2 859.5 2431.4 863.3 2426.4C866 2422.8 872.9 2423.8 876.5 2424.2C877.5 2426.2 878.6 2428.1 879.5 2430.1C883.9 2440.1 886.4 2443.8 894 2449L896.2 2450.5C894.3 2453.6 892.6 2453.5 889.8 2454.7C880.133 2455.5 870.433 2456.13 860.7 2456.6C846.1 2469.6 831.4 2484 812.7 2479.7C807.9 2478.5 803.5 2475.5 799.2 2472.7Z" fill="#D28376"/>
<path d="M805.2 2277.1C806.067 2277.17 806.933 2277.2 807.8 2277.2C815.4 2277.4 823.1 2275.3 830.7 2274.7C865.8 2272 904.1 2273.2 930.6 2308.8C939.9 2321.4 944.9 2334.4 948.9 2350.9C934.1 2355.1 917.8 2357.8 906.7 2372.9C904.1 2364.6 902 2356.5 897.3 2349.9C892.4 2338.8 884 2327.6 876.3 2320.1C850.1 2294.6 815.8 2297.8 785.4 2303.7C792.8 2294.7 795.8 2284.6 805.2 2277.1Z" fill="#F5A88B"/>
<path d="M754.7 2319.1C766.2 2318.9 779.7 2312.8 791.4 2310.5C813.2 2306.3 830.4 2310.1 851.9 2312.8C868.1 2325.1 887.2 2342.9 892.4 2368.3C894.3 2377.8 893.7 2387.2 890 2395.8C886.1 2404.9 879.3 2412.8 871.5 2415.6C867.1 2417.3 864.7 2416.4 860.8 2413.3C856.2 2401.3 855.4 2385.7 846.9 2377C841.3 2366.5 832.4 2358.6 823.7 2353.2C795.2 2335.5 760.3 2341.5 731.7 2355.2C732.2 2351.7 732.9 2348.3 733.9 2345.1C737.7 2332.7 745.6 2324.1 754.7 2319.1Z" fill="#F5A88B"/>
<path d="M942.3 2306.5C946.9 2289.4 945.6 2268.6 947.4 2250.5C952 2260.3 966.6 2266.6 974.5 2272.9C986.3 2282.4 996.8 2295.3 1006.3 2308.6C1032 2344.4 1051.1 2385.2 1073.1 2424.8C1123 2514.7 1192.9 2564.1 1273.5 2588.8C1291.1 2594.2 1311.3 2596.4 1327.9 2605C1298.2 2613.1 1270.2 2626 1240.9 2635.4C1229.1 2630.5 1205.9 2649 1195 2656.6C1116.1 2711.5 1045 2794.6 981 2876.2C964.2 2897.5 947 2928.2 929.8 2946.9C924.2 2837.3 922.2 2727.4 913.9 2617.9C926.1 2607.5 939.2 2597.1 949.3 2583C971.3 2552.1 1021.3 2435.5 1019.4 2391.1C1019 2381.2 1015.3 2373.2 1009.7 2367C995.6 2351.4 975.7 2348.7 958.3 2350.3C954.3 2333.3 951 2320.4 942.3 2306.5Z" fill="#8CA0CA"/>
<path d="M1883.7 673.9C1945.03 670.7 2006.4 668.767 2067.8 668.1C2110.6 667.8 2156.6 665.7 2198.7 677C2218.6 682.3 2240.3 692.5 2255.2 711.4C2263.6 722 2269.4 736.4 2269.7 752C2269.9 761.7 2267.1 770.3 2262 777C2219.2 833.3 2107 769.8 2051.2 843.7C2042.3 855.4 2035.2 870 2035 887.1C2034.8 903.2 2040.7 917.8 2049.1 928.9C2063.3 947.3 2083.5 957.6 2102.8 961.5C2130.1 967 2160.5 962.9 2188.1 962.2C2253.17 960.4 2318.23 959.667 2383.3 960C2443.5 960 2728 945.1 2732.5 1061.8C2733 1075.8 2728.5 1088.4 2721.4 1098.4C2705.1 1121.1 2679.7 1131.6 2657.3 1138C2595 1156.1 2527.5 1155.2 2463.9 1156.5L2229.8 1159.1C2192.5 1159.6 2153.3 1157 2116.6 1166.9C2076.1 1177.9 2021.2 1208.8 2021.3 1274.5C2021.3 1296.8 2028.5 1316.5 2040.3 1332C2059.7 1357.3 2089.4 1369.5 2115.4 1376.6C2177.9 1393.8 2243.9 1392.6 2307.4 1392.7C2393.1 1392.9 2479.2 1389.8 2564.8 1393.9C2617.6 1396.5 2671.1 1401.7 2721.8 1423C2754.7 1436.8 2786 1459.5 2810.9 1491.7C2831.1 1517.8 2847.7 1553.7 2848.8 1592.1C2849.4 1613 2845.6 1630 2834.6 1645.4C2808.3 1682.1 2753.5 1679.4 2718.1 1679.5C2687.3 1679.6 2656.5 1678.7 2625.8 1678.3C2571.3 1677.5 2501.9 1671.5 2459.9 1727.5C2450.7 1739.8 2442.8 1754.6 2443.4 1772.9C2443.8 1786.4 2449.9 1799.2 2457.5 1807.7C2490.6 1844.8 2556.2 1830.7 2596.4 1828C2620.13 1826.4 2643.87 1825.43 2667.6 1825.1C2687.9 1824.7 2709.7 1823.9 2729.7 1828.7C2778.8 1840.6 2805.6 1892.1 2810.8 1955.1C2818.2 2043.1 2789.8 2137.1 2748.7 2204.7C2628.1 2403.5 2399.8 2434.3 2226.5 2496.3C2211.5 2459.7 2186.8 2402.9 2154.4 2390.4C2145.6 2387.1 2136.5 2388.3 2128.6 2394.5C2109 2409.9 2100.4 2448.9 2095.6 2476.7C2092.8 2493.63 2090.7 2510.73 2089.3 2528C2073.5 2535.8 2054.1 2538 2037.3 2542.2C1998.3 2551.87 1959.23 2561.07 1920.1 2569.8C1898.8 2574.6 1874.8 2583.9 1853.4 2584.3C1832.4 2579.9 1811.37 2575.9 1790.3 2572.3C1797.6 2618 1795.2 2662.8 1775.7 2702.8C1766.2 2722.4 1753.5 2737.4 1739.4 2751.1C1732.27 2756.37 1724.97 2761.2 1717.5 2765.6C1658.3 2800.7 1587.5 2799.7 1527.3 2768.6C1493.9 2751.3 1460.3 2720.2 1445.6 2675.1C1435.1 2642.9 1436.4 2610.3 1446 2578.2C1406.3 2584 1366.8 2594 1327.9 2605C1311.3 2596.4 1291.1 2594.2 1273.5 2588.8C1192.9 2564.1 1123 2514.7 1073.1 2424.8C1051.1 2385.2 1032 2344.4 1006.3 2308.6C996.8 2295.3 986.3 2282.4 974.5 2272.9C966.6 2266.6 952 2260.3 947.4 2250.5C945.6 2268.6 946.9 2289.4 942.3 2306.5C915 2272.5 885 2266.8 849.2 2264C851.2 2240.47 852.733 2216.87 853.8 2193.2C808.9 2194.1 764 2190.2 719.2 2189.1C612.5 2186.6 494.1 2190 390.5 2154.9C336.1 2136.5 271.8 2103.8 241.9 2035.8C231 2011.2 223.8 1979.5 229.4 1951.2C235.5 1920.2 247.5 1894.4 267.9 1876.8C351.2 1805.3 476.5 1918.5 549.8 1858C562.9 1847.2 571.9 1832.9 575.3 1812.6C578.1 1795.7 577.4 1777.9 570.2 1763.1C541.5 1704.2 471.6 1725.7 428.3 1711.8C419.5 1708.9 408 1703.6 403.7 1691.7C401.5 1685.6 402 1678.3 403.4 1671.9C406.1 1659.3 412.9 1648.6 419.9 1639.8C442.5 1611.7 476.6 1600.5 506.2 1594.5C539.4 1587.8 574 1590 607.5 1590.1L768.3 1591.9C810.7 1592.1 862.4 1596.6 900.5 1568.1C914.2 1557.8 926.7 1542.8 930.6 1521.8C930.8 1520.8 931 1519.8 931.2 1518.8C931.333 1517.73 931.467 1516.7 931.6 1515.7C931.733 1514.63 931.833 1513.57 931.9 1512.5C931.967 1511.5 932.033 1510.47 932.1 1509.4C932.1 1508.33 932.1 1507.27 932.1 1506.2C932.1 1505.2 932.1 1504.17 932.1 1503.1C932.033 1502.03 931.967 1500.97 931.9 1499.9C931.767 1498.9 931.667 1497.87 931.6 1496.8C931.467 1495.8 931.3 1494.77 931.1 1493.7C930.967 1492.7 930.8 1491.7 930.6 1490.7C930.4 1489.63 930.167 1488.6 929.9 1487.6C929.633 1486.6 929.367 1485.6 929.1 1484.6C928.833 1483.67 928.533 1482.7 928.2 1481.7C927.867 1480.77 927.533 1479.83 927.2 1478.9C926.867 1477.97 926.5 1477.03 926.1 1476.1C925.7 1475.17 925.3 1474.27 924.9 1473.4C919.8 1462.9 912.4 1453.4 904.3 1447.1C843.2 1399.2 636.3 1401 557.7 1398C519.5 1396.5 479.1 1397.6 441.7 1386.1C422.7 1380.3 399.4 1369.5 389.1 1346C384.1 1334.7 384 1322.8 386.9 1310.5C408.8 1216.8 610 1211.7 670 1207.3C722.733 1203.77 775.5 1200.8 828.3 1198.4C877.4 1196 961.3 1200.3 1003.8 1168.2C1016.9 1158.3 1029.6 1143.6 1033.4 1123.3C1036.6 1106.4 1034.4 1090 1027.5 1075.1C1011.4 1040.5 979.8 1022.1 951.3 1012.5C901 995.7 844 998.2 792.4 997.3L624.4 995.6C588.9 995.1 549.3 997 514.8 986.1C499.3 981.2 481.1 971.4 472.9 952.2C468.2 941.1 468.6 928.5 471.3 916.6C477.5 889 494.8 869.9 513 856.5C542.1 835.3 575 825.2 607.5 818.7C711.1 797.8 808.8 824.3 905.6 873.7C956.6 899.8 1004.9 934.9 1057.7 955C1162 994.7 1237.4 927.9 1324.7 863.2C1338.5 882.1 1352.6 900.6 1369.2 915.3C1389.4 933.2 1431.7 952.6 1443.8 976.9C1457.3 1004.1 1463 1038.6 1473 1068.2C1493.2 1068.3 1513.6 1069.1 1533.8 1067.8H1536.6C1566.6 1068.7 1596.9 1066.7 1626.9 1068.4L1631.8 1067.8C1651.9 1069 1672.4 1068.6 1692.4 1067.3C1703.6 1037.7 1709.3 1001.7 1723.6 974.6C1735.2 952.6 1768.5 938.1 1786.4 923C1806.6 905.9 1825 886.1 1840.7 861.9C1877 806.3 1887.8 745.9 1883.7 673.9Z" fill="#FEFEFE"/>
<path d="M1531.7 1218.6C1537.3 1215.3 1626 1216 1635.2 1219.2C1623.8 1232.2 1607 1240.6 1592.2 1242.9C1569.4 1246.4 1549.2 1237.8 1531.7 1218.6Z" fill="#505458"/>
<path d="M1474.3 1175.4C1484.8 1181.2 1665.7 1180.1 1691.5 1178.2C1693.4 1186.4 1693.9 1195.4 1691.1 1203.4C1688.8 1210 1683.8 1213.5 1678.7 1215.1C1668.3 1218.3 1641.8 1213.9 1635.2 1219.2C1626 1216 1537.3 1215.3 1531.7 1218.6C1524.6 1212.4 1505.3 1216.7 1496.5 1216.3C1489.3 1216 1481.3 1215 1476.6 1206.8C1471.6 1198.1 1472.8 1185.3 1474.3 1175.4Z" fill="#9FAFBD"/>
<path d="M1246.7 1680.5C1253.8 1688.4 1288.4 1698.2 1298.9 1701L1298.2 1710.4C1287.2 1758.3 1283.2 1812.2 1280.2 1862C1279.1 1879.4 1280.5 1902.4 1277 1918.9C1269.8 1902.9 1262.4 1887 1255.7 1870.6C1229.3 1806.3 1231.5 1749.1 1246.7 1680.5Z" fill="#413839"/>
<path d="M1461.7 1126.6C1483 1131.2 1507.2 1128.4 1528.9 1128.3L1647.2 1127.8C1666.1 1127.7 1685.7 1126.4 1704.6 1127.6C1710.7 1136.9 1713.2 1143.3 1714.9 1155.3C1710.2 1167 1705.8 1172.7 1696.1 1176.6C1694.6 1177.2 1693.1 1177.7 1691.5 1178.2C1665.7 1180.1 1484.8 1181.2 1474.3 1175.4C1468.5 1174.3 1463.3 1173.2 1458.7 1168C1454.8 1163.7 1452.5 1157.7 1452.4 1150.9C1452.4 1140.3 1456.5 1134 1461.7 1126.6Z" fill="#9FAFBD"/>
<path d="M1474.3 1175.4L1476.5 1172.7C1544.8 1159.2 1646.9 1145.1 1714.9 1155.3C1710.2 1167 1705.8 1172.7 1696.1 1176.6C1694.6 1177.2 1693.1 1177.7 1691.5 1178.2C1665.7 1180.1 1484.8 1181.2 1474.3 1175.4Z" fill="#798FA2"/>
<path d="M853.8 2193.2C855.7 2166 856.8 2135.1 873.7 2116C882.5 2106.1 894.5 2100.9 906 2102.4C906.667 2102.47 907.367 2102.57 908.1 2102.7C908.767 2102.83 909.467 2103 910.2 2103.2C910.867 2103.4 911.567 2103.63 912.3 2103.9C912.967 2104.1 913.633 2104.33 914.3 2104.6C914.967 2104.93 915.633 2105.27 916.3 2105.6C916.967 2105.93 917.633 2106.27 918.3 2106.6C918.967 2107 919.6 2107.4 920.2 2107.8C920.867 2108.2 921.5 2108.63 922.1 2109.1C922.767 2109.57 923.4 2110.07 924 2110.6C924.6 2111.07 925.167 2111.6 925.7 2112.2C926.3 2112.73 926.867 2113.3 927.4 2113.9C928 2114.43 928.567 2115.03 929.1 2115.7C929.633 2116.3 930.167 2116.93 930.7 2117.6C931.167 2118.27 931.633 2118.93 932.1 2119.6C932.633 2120.33 933.133 2121.07 933.6 2121.8C934 2122.47 934.433 2123.2 934.9 2124C952.1 2154.3 949.1 2214.2 947.4 2250.5C945.6 2268.6 946.9 2289.4 942.3 2306.5C915 2272.5 885 2266.8 849.2 2264C851.2 2240.47 852.733 2216.87 853.8 2193.2Z" fill="#F5A88B"/>
<path d="M1692.4 1067.3C1703.3 1070.5 1712.7 1074.4 1719.1 1087.9C1721.8 1093.5 1722.8 1099.5 1721.6 1106C1719.9 1115.2 1713.9 1121 1708 1125.3C1706.87 1126.1 1705.73 1126.87 1704.6 1127.6C1685.7 1126.3 1666.1 1127.7 1647.2 1127.8L1528.9 1128.3C1507.2 1128.4 1483 1131.2 1461.7 1126.6C1454.9 1121.7 1448.3 1116.9 1445.9 1106.4C1444.4 1099.9 1445.2 1093.2 1447.8 1087.4C1453.4 1075.2 1463.1 1070.8 1473 1068.2C1493.2 1068.3 1513.6 1069.1 1533.8 1067.8H1536.6C1566.6 1068.7 1596.9 1066.7 1626.9 1068.4L1631.8 1067.8C1651.9 1069 1672.4 1068.6 1692.4 1067.3Z" fill="#798FA2"/>
<path d="M1957.8 2001.2C1983.3 2000.2 2009.6 2006.3 2028.8 2030.8C2039.2 2044.1 2046 2061.8 2046 2081.3C2046 2105.2 2036.4 2128 2023.6 2144.2C2002.4 2171 1970.9 2181.8 1942.3 2180.4C1933.1 2180 1918.5 2172.1 1910.4 2174.7C1909.5 2178.7 1908.6 2182.7 1907.9 2186.7C1910.7 2152.8 1911.1 2118.6 1913.4 2084.5L1913.8 2072.6C1914.8 2055.1 1915 2037.4 1915.6 2019.8C1929.5 2013 1943.4 2006.5 1957.8 2001.2Z" fill="#F5A88B"/>
<path d="M1913.8 2072.6C1935.6 2056.6 1966.8 2037.3 1992.1 2048.1C1997.8 2050.5 2004.6 2056.2 2006.9 2064C2008.6 2069.9 2007.8 2079.8 2005.3 2085.2C2004.9 2085.9 2004.5 2086.5 2004.1 2087.1L2001.9 2085.9C2000.7 2076.8 2001.5 2068.7 1995.1 2062.9C1983.1 2052 1960.8 2060.6 1947.3 2063.5C1956.3 2070.6 1969.2 2078.9 1972.4 2093.4C1974 2100.4 1973.3 2112.6 1969.3 2118.2C1968.7 2119.2 1967.8 2119.9 1967.1 2120.8C1960.5 2110.4 1965.8 2076.2 1940.7 2073.6C1929.9 2072.5 1922.6 2078 1913.4 2084.5L1913.8 2072.6Z" fill="#B55347"/>
<path d="M1488.2 2540.5C1583.7 2552.1 1663.4 2532.6 1750.3 2478.5L1748.8 2498.9C1744.8 2552.2 1744.9 2662.6 1711.6 2698C1681.3 2730.2 1633.4 2735 1596.5 2728.6C1564.4 2723.1 1527.3 2708.3 1507 2672.2C1493.4 2648.1 1489.2 2617.8 1489.2 2588.2C1489.4 2572.3 1488.6 2556.4 1488.2 2540.5Z" fill="#F5A88B"/>
<path d="M1488.2 2540.5C1583.7 2552.1 1663.4 2532.6 1750.3 2478.5L1748.8 2498.9C1681.2 2572.1 1598.8 2613.3 1511.2 2601.5C1504.5 2600.6 1497.2 2599.7 1491.5 2594.6L1489.2 2588.2C1489.4 2572.3 1488.6 2556.4 1488.2 2540.5Z" fill="#D28376"/>
<path d="M1325.6 1440C1325.47 1439.27 1325.3 1438.57 1325.1 1437.9C1317 1406.7 1293.6 1367.4 1305.4 1333.1C1308.5 1323.9 1315.4 1316.4 1322.6 1313.4C1333.3 1309 1344.6 1315.7 1353.8 1322.8C1413.3 1368.5 1423.9 1438.2 1502.2 1440.2C1527.2 1440.8 1553.3 1437 1577.5 1428.5C1601 1420.3 1622.9 1406 1646.3 1397.3C1714.5 1372.2 1801.9 1369.8 1864.8 1418C1875.6 1426.2 1886.8 1436.7 1894.9 1449.5C1905 1461.3 1911.5 1478.9 1916 1495.6C1918 1506.1 1919.7 1516 1919.7 1527C1919.7 1541.2 1912 1579.9 1914 1588C1887.4 1636.1 1850.2 1648.8 1816.3 1678.8L1804.3 1687.1C1767.9 1707.2 1732.3 1722.2 1694 1734.1L1690.5 1735.1C1569.2 1761.8 1416.8 1745.5 1298.9 1701C1288.4 1698.2 1253.8 1688.4 1246.7 1680.5C1205.3 1660.2 1164.4 1630.5 1144.8 1574.8C1140.3 1561.8 1134.1 1540.5 1138.5 1526.7C1146.5 1501.4 1166.2 1515.1 1179.9 1506.8L1181.7 1505.6C1170.9 1476.9 1157.4 1444.5 1159.2 1411.4C1159.27 1410.2 1159.33 1409 1159.4 1407.8C1159.53 1406.6 1159.67 1405.4 1159.8 1404.2C1159.93 1403 1160.1 1401.83 1160.3 1400.7C1160.5 1399.5 1160.73 1398.33 1161 1397.2C1161.2 1396.07 1161.43 1394.9 1161.7 1393.7C1162.03 1392.57 1162.37 1391.43 1162.7 1390.3C1162.97 1389.23 1163.3 1388.13 1163.7 1387C1164.03 1385.93 1164.4 1384.87 1164.8 1383.8C1165.2 1382.73 1165.63 1381.67 1166.1 1380.6C1166.57 1379.53 1167.03 1378.5 1167.5 1377.5C1167.97 1376.5 1168.47 1375.5 1169 1374.5C1169.53 1373.5 1170.07 1372.53 1170.6 1371.6C1171.2 1370.67 1171.77 1369.73 1172.3 1368.8C1172.9 1367.93 1173.53 1367.07 1174.2 1366.2C1174.8 1365.33 1175.43 1364.47 1176.1 1363.6C1176.77 1362.8 1177.43 1362 1178.1 1361.2C1178.83 1360.4 1179.57 1359.6 1180.3 1358.8C1181.03 1358.07 1181.77 1357.33 1182.5 1356.6C1183.3 1355.87 1184.1 1355.17 1184.9 1354.5C1185.7 1353.83 1186.5 1353.2 1187.3 1352.6C1188.1 1352 1188.93 1351.4 1189.8 1350.8C1190.6 1350.27 1191.43 1349.73 1192.3 1349.2C1193.17 1348.73 1194.03 1348.27 1194.9 1347.8C1195.77 1347.33 1196.67 1346.9 1197.6 1346.5C1198.47 1346.1 1199.37 1345.73 1200.3 1345.4C1201.17 1345.07 1202.07 1344.77 1203 1344.5C1203.93 1344.23 1204.87 1344 1205.8 1343.8C1206.73 1343.6 1207.67 1343.43 1208.6 1343.3C1209.53 1343.1 1210.47 1342.97 1211.4 1342.9C1212.33 1342.83 1213.27 1342.77 1214.2 1342.7C1215.13 1342.7 1216.07 1342.7 1217 1342.7C1217.93 1342.77 1218.87 1342.83 1219.8 1342.9C1259.3 1347.1 1296.2 1405.5 1319.7 1443.6C1322.9 1443.1 1323.2 1442.8 1325.6 1440Z" fill="#272A2D"/>
<path d="M1681.6 1402.5C1745.5 1393.9 1817.3 1386.5 1870.6 1444.5C1881 1455.8 1888.9 1468.7 1896 1483.9C1898.5 1493.9 1901 1503.7 1902.7 1514C1902.8 1528.9 1900.4 1542.8 1897.9 1557.1C1896.3 1520.6 1893.6 1494.2 1872 1467.7C1823 1407.5 1746 1401.7 1683 1405.2L1681.6 1402.5Z" fill="#FEFEFE"/>
<path d="M1301.7 1591.2C1314.7 1592.5 1324.8 1614 1338.8 1618.2C1367.7 1627 1398 1611.4 1427.3 1618.7C1438.5 1621.4 1447.1 1632 1456.1 1640.6C1480.5 1664 1509.5 1663.3 1538.3 1661.8C1580.4 1659.6 1620 1646.7 1660.3 1631.6C1676 1625.7 1693.2 1616.3 1709.2 1613.9L1711.3 1616.4C1689.5 1635 1644 1648.2 1617.6 1655.2C1576.5 1666.2 1503.8 1679.3 1464.9 1656.1C1448.7 1646.5 1433.5 1629 1415.7 1626C1384.2 1620.7 1342.1 1641.5 1314.1 1615.1C1307.6 1608.9 1303 1601.8 1301.7 1591.2Z" fill="#505458"/>
<path d="M1914 1588C1940.5 1589.5 1970.3 1610.3 1988.2 1636.1C2008.7 1665.6 2015.8 1704 2014.5 1743.5C2012.3 1812.8 1978.9 1936.6 1957.8 2001.2C1943.4 2006.5 1929.5 2013 1915.6 2019.8C1915 2037.4 1914.8 2055.1 1913.8 2072.6L1913.4 2084.5C1911.1 2118.6 1910.7 2152.8 1907.9 2186.7C1907.8 2207.2 1905.4 2234.4 1900 2253.5C1885.5 2337.6 1844.3 2404.1 1790.1 2449.2C1777.2 2459.9 1763.7 2469.2 1750.3 2478.5C1663.4 2532.6 1583.7 2552.1 1488.2 2540.5C1482.87 2539.63 1477.5 2538.57 1472.1 2537.3C1466.77 2536.1 1461.47 2534.7 1456.2 2533.1C1450.93 2531.5 1445.67 2529.73 1440.4 2527.8C1435.2 2525.87 1430.03 2523.77 1424.9 2521.5C1386 2508 1343 2472.8 1315.3 2434.3C1270.5 2371.9 1250.8 2276.6 1259 2191.9C1262.3 2158.2 1270.3 2125.2 1273.2 2091.6C1274.5 2076.4 1273.6 2060.4 1273.7 2045.1L1274.9 1968.7C1274.1 1954.6 1272.3 1931.7 1277 1918.9C1280.5 1902.4 1279.1 1879.4 1280.2 1862C1283.2 1812.2 1287.2 1758.3 1298.2 1710.4L1298.9 1701C1416.8 1745.5 1569.2 1761.8 1690.5 1735.1L1694 1734.1C1732.3 1722.2 1767.9 1707.2 1804.3 1687.1L1816.3 1678.8C1850.2 1648.8 1887.4 1636.1 1914 1588Z" fill="#413839"/>
<path d="M1424.9 2521.5L1428.8 2519.3L1430.2 2519.7C1447.2 2524.9 1483.6 2535.7 1499.9 2537.5C1502.9 2537.83 1505.93 2538.13 1509 2538.4C1512.07 2538.6 1515.1 2538.8 1518.1 2539C1521.17 2539.2 1524.2 2539.33 1527.2 2539.4C1530.27 2539.47 1533.3 2539.53 1536.3 2539.6C1539.37 2539.6 1542.43 2539.57 1545.5 2539.5C1548.5 2539.37 1551.53 2539.23 1554.6 2539.1C1557.6 2538.97 1560.63 2538.77 1563.7 2538.5C1566.7 2538.3 1569.73 2538.03 1572.8 2537.7C1575.8 2537.37 1578.83 2537.03 1581.9 2536.7C1584.9 2536.3 1587.9 2535.83 1590.9 2535.3C1593.9 2534.83 1596.93 2534.33 1600 2533.8C1603 2533.27 1606 2532.67 1609 2532C1612 2531.33 1615 2530.67 1618 2530C1621 2529.27 1623.97 2528.5 1626.9 2527.7C1629.9 2526.9 1632.87 2526.07 1635.8 2525.2C1638.8 2524.33 1641.77 2523.4 1644.7 2522.4C1647.7 2521.47 1650.67 2520.47 1653.6 2519.4C1656.53 2518.4 1659.47 2517.33 1662.4 2516.2C1665.27 2515.13 1668.17 2514 1671.1 2512.8C1674.03 2511.6 1676.93 2510.37 1679.8 2509.1C1682.67 2507.83 1685.53 2506.53 1688.4 2505.2C1691.27 2503.8 1694.13 2502.4 1697 2501C1699.87 2499.6 1702.7 2498.13 1705.5 2496.6C1708.3 2495.13 1711.1 2493.6 1713.9 2492C1716.7 2490.47 1719.5 2488.87 1722.3 2487.2C1725.1 2485.53 1727.87 2483.83 1730.6 2482.1C1733.33 2480.43 1736.07 2478.7 1738.8 2476.9C1741.53 2475.1 1744.23 2473.27 1746.9 2471.4C1749.63 2469.53 1752.33 2467.63 1755 2465.7C1757.67 2463.77 1760.33 2461.77 1763 2459.7C1765.6 2457.7 1768.2 2455.67 1770.8 2453.6C1773.4 2451.53 1776 2449.43 1778.6 2447.3C1813.2 2418.4 1847.5 2379.9 1869.7 2333.7C1873.3 2326.4 1875.2 2317.6 1878.4 2309.9C1882.7 2299.5 1888.9 2288.4 1890.7 2276.7C1891.8 2269.2 1893.7 2254.7 1898 2249.7L1900 2253.5C1885.5 2337.6 1844.3 2404.1 1790.1 2449.2C1777.2 2459.9 1763.7 2469.2 1750.3 2478.5C1663.4 2532.6 1583.7 2552.1 1488.2 2540.5C1482.87 2539.63 1477.5 2538.57 1472.1 2537.3C1466.77 2536.1 1461.47 2534.7 1456.2 2533.1C1450.93 2531.5 1445.67 2529.73 1440.4 2527.8C1435.2 2525.87 1430.03 2523.77 1424.9 2521.5Z" fill="#1E1E22"/>
<path d="M1658 2231.6L1666.8 2232.2C1667.8 2235.9 1667.7 2238.6 1666.5 2242.3C1660.3 2262.9 1631.2 2281.6 1616 2288.3C1597.4 2296.4 1577.5 2298.2 1558.8 2289.5C1553.7 2286.9 1550.6 2284.7 1546.6 2279.3C1559.7 2258.4 1578 2249.7 1597 2242.8C1617 2235.6 1637.5 2233.9 1658 2231.6Z" fill="#D28376"/>
<path d="M1512.1 2236.9C1511.7 2236.1 1511.4 2235.3 1511.1 2234.4C1508.9 2229 1507.1 2224.9 1508.5 2218.9C1520.4 2214.7 1535 2216.2 1547.4 2215.2C1563.8 2213.53 1580.13 2211.03 1596.4 2207.7C1623.1 2202.1 1648 2187.7 1674.4 2180.9C1678 2182.6 1677.9 2182.7 1679.9 2187.1C1679.7 2193.7 1677.9 2197.6 1675.6 2203.1L1675.9 2207.3C1667.1 2221 1639.3 2226.1 1626.1 2229.9C1636.2 2229.5 1648.9 2226.7 1658.7 2229.3L1658 2231.6C1637.5 2233.9 1617 2235.6 1597 2242.8C1578 2249.6 1559.7 2258.4 1546.6 2279.3C1544.1 2280.3 1545.1 2280.6 1543.6 2279.9C1532.4 2266.2 1521.3 2253.2 1512.1 2236.9Z" fill="#FEFEFE"/>
<path d="M1675.5 2203.1L1675.9 2207.3C1667.1 2221 1639.3 2226.1 1626 2229.9C1636.2 2229.5 1648.9 2226.7 1658.7 2229.3L1658 2231.6C1637.5 2233.9 1617 2235.6 1597 2242.8C1578 2249.7 1559.7 2258.4 1546.6 2279.3C1544.1 2280.3 1545 2280.6 1543.6 2279.9C1532.4 2266.2 1521.3 2253.2 1512.1 2236.9C1519 2237.8 1525.7 2238.4 1532.6 2238.6C1578.9 2237.3 1633 2227.7 1675.5 2203.1Z" fill="#272A2D"/>
<path d="M1512.1 2236.9C1519 2237.8 1525.7 2238.4 1532.6 2238.6C1532.2 2239 1531.8 2239.4 1531.4 2239.7C1528.1 2241.9 1523.2 2240.8 1519.6 2240.6L1518.7 2241.9C1527.3 2250.2 1560 2245.3 1571 2243.2C1573.8 2242.6 1576.4 2241.6 1579.1 2240.6C1581.6 2239.8 1583.2 2240.4 1585.6 2240.3C1586.7 2240.2 1589 2239.6 1590.2 2239.3L1590.3 2238.4L1592.9 2239.6C1591.9 2239.8 1590.9 2240.03 1589.9 2240.3C1587.6 2240.8 1586.5 2241.3 1584.5 2242.8C1572.3 2252 1549.2 2251.9 1544.1 2274.5C1543.8 2276 1543.7 2278.4 1543.6 2279.9C1532.4 2266.2 1521.3 2253.2 1512.1 2236.9Z" fill="#1E1E22"/>
<path d="M1816.3 1678.8C1824.2 1699.9 1829.9 1722.3 1835.4 1744.6C1845.9 1782.2 1863.2 1855.6 1866.2 1894.5C1871.2 1958.3 1847.5 2101 1827.9 2157.8C1823.1 2171.7 1816 2189.2 1804.5 2194.5C1784.6 2203.7 1761.6 2191.9 1743.9 2179.5C1708.1 2154.3 1680.3 2121.4 1636.9 2139C1611.7 2149.3 1592.3 2167.3 1575.2 2193.8C1542.3 2180.7 1509.5 2165.5 1475.1 2162.2C1456.9 2160.5 1438.6 2161.7 1420.5 2163.6C1383.2 2167.3 1317.6 2182.3 1295.4 2129.3C1276.3 2083.8 1281.8 1999.9 1277.2 1947C1276.6 1954.2 1276.3 1961.7 1274.9 1968.7C1274.1 1954.6 1272.3 1931.7 1277 1918.9C1280.5 1902.4 1279.1 1879.4 1280.2 1862C1283.2 1812.2 1287.2 1758.3 1298.2 1710.4L1298.9 1701C1416.8 1745.5 1569.2 1761.8 1690.5 1735.1L1694 1734.1C1732.3 1722.2 1767.9 1707.2 1804.3 1687.1L1816.3 1678.8Z" fill="#F5A88B"/>
<path d="M1647.4 1928.3C1668.2 1913 1691.7 1908.1 1714.8 1917.1C1725.8 1921.4 1746 1933.8 1750.3 1949.3C1751 1951.9 1750.9 1952.2 1750.9 1954.5C1747.8 1956.6 1747.7 1956.3 1744.6 1954.7C1738.8 1951.8 1733.4 1946.6 1727.9 1942.9C1711.8 1932.1 1694.4 1931.5 1676.8 1932.3C1673.3 1934.5 1668.3 1935.3 1664.5 1936.9C1652.4 1942.2 1640.4 1948.6 1628.6 1954.9C1633.8 1943.5 1639.3 1936.1 1647.4 1928.3Z" fill="#1E1E22"/>
<path d="M1404.1 1904.5C1422.8 1903 1442.3 1907.6 1458.2 1921.7C1463.8 1926.6 1470.9 1933.4 1472.4 1942.5C1466.9 1945.2 1433.5 1926.5 1423 1924.2C1392.2 1922.2 1374.5 1937.7 1346.7 1950.8C1347.9 1948.2 1349.17 1945.63 1350.5 1943.1C1362.8 1919.3 1383.8 1909.7 1404.1 1904.5Z" fill="#1E1E22"/>
<path d="M1538.6 1965.5L1539.4 1966.6C1542.6 1983.7 1504.2 2070.1 1496.5 2089C1492.3 2099.3 1486 2114.7 1489.8 2126.5C1491.3 2130.9 1494.2 2134 1497.4 2136C1523 2151.9 1556.8 2131 1580.9 2120.3C1574.1 2128.2 1567.6 2134.8 1559.8 2140.9C1557.2 2142.3 1554.57 2143.57 1551.9 2144.7C1530 2154 1498.8 2159 1478 2143.1C1473.6 2139.7 1468.8 2134.2 1468.1 2127.1C1466.1 2108.7 1526.7 1990.8 1538.6 1965.5Z" fill="#B55347"/>
<path d="M1356 1822.8L1352.9 1822.9C1354.7 1812.3 1366.7 1802.9 1373.5 1797.2C1395.3 1779.2 1422.6 1774.5 1447.6 1782.9C1456.6 1785.9 1469.1 1791.8 1474.4 1802.8C1476.3 1806.9 1476 1808.6 1475.8 1813.3C1471.1 1821.9 1464.2 1825.1 1456.5 1826.7C1449 1828.3 1441.5 1826 1434 1826.3C1408.1 1821.5 1382.2 1820.8 1356 1822.8Z" fill="#272A2D"/>
<path d="M1651.3 1796.6C1681.5 1787.3 1713.4 1788.8 1740.3 1811.5C1748.6 1818.4 1760.7 1829.9 1764.2 1842.2L1763.3 1845L1757.4 1844.4C1742.2 1838.9 1725.1 1837.3 1709.5 1836.7C1690.2 1835.8 1658 1844.8 1641.8 1828.9C1638.2 1825.4 1637.7 1822.9 1636.8 1817.3C1639 1807.3 1645 1801.7 1651.3 1796.6Z" fill="#272A2D"/>
<path d="M1404.3 1950.5C1414.7 1949.5 1424.3 1948.7 1434.1 1954.7C1442.8 1960 1450 1968.9 1453.2 1981.1C1453.33 1981.77 1453.5 1982.4 1453.7 1983C1453.83 1983.67 1453.93 1984.33 1454 1985C1454.13 1985.6 1454.23 1986.23 1454.3 1986.9C1454.43 1987.57 1454.53 1988.23 1454.6 1988.9C1454.67 1989.57 1454.7 1990.23 1454.7 1990.9C1454.77 1991.57 1454.8 1992.23 1454.8 1992.9C1454.8 1993.57 1454.8 1994.23 1454.8 1994.9C1454.8 1995.57 1454.77 1996.23 1454.7 1996.9C1454.7 1997.57 1454.67 1998.23 1454.6 1998.9C1454.53 1999.57 1454.43 2000.23 1454.3 2000.9C1454.23 2001.5 1454.13 2002.13 1454 2002.8C1453.87 2003.47 1453.73 2004.13 1453.6 2004.8C1453.47 2005.4 1453.33 2006.03 1453.2 2006.7C1453 2007.3 1452.8 2007.9 1452.6 2008.5C1452.4 2009.17 1452.2 2009.77 1452 2010.3C1451.8 2010.97 1451.57 2011.57 1451.3 2012.1C1445.2 2027 1434.3 2033.3 1422.7 2038C1412.2 2038.7 1402.8 2038.7 1393 2032.5C1384.6 2027.1 1377.5 2018 1374.6 2006C1374.47 2005.4 1374.33 2004.8 1374.2 2004.2C1374.07 2003.6 1373.93 2002.97 1373.8 2002.3C1373.73 2001.7 1373.63 2001.07 1373.5 2000.4C1373.43 1999.8 1373.37 1999.17 1373.3 1998.5C1373.23 1997.9 1373.2 1997.27 1373.2 1996.6C1373.13 1996 1373.1 1995.37 1373.1 1994.7C1373.1 1994.03 1373.1 1993.4 1373.1 1992.8C1373.1 1992.13 1373.13 1991.47 1373.2 1990.8C1373.27 1990.2 1373.3 1989.57 1373.3 1988.9C1373.37 1988.3 1373.47 1987.67 1373.6 1987C1373.67 1986.4 1373.77 1985.77 1373.9 1985.1C1373.97 1984.5 1374.07 1983.9 1374.2 1983.3C1374.4 1982.63 1374.57 1982 1374.7 1981.4C1374.83 1980.8 1375 1980.2 1375.2 1979.6C1375.4 1979 1375.6 1978.4 1375.8 1977.8C1376 1977.27 1376.2 1976.7 1376.4 1976.1C1382.2 1961.3 1393.1 1955.3 1404.3 1950.5Z" fill="#272A2D"/>
<path d="M1680.9 1956.6C1691 1956.2 1700.1 1956.5 1709.1 1963.2C1717.3 1969.2 1723.7 1978.7 1726.3 1990.8C1726.43 1991.4 1726.57 1992.03 1726.7 1992.7C1726.83 1993.37 1726.93 1994.03 1727 1994.7C1727.07 1995.37 1727.13 1996 1727.2 1996.6C1727.27 1997.27 1727.33 1997.93 1727.4 1998.6C1727.4 1999.27 1727.43 1999.93 1727.5 2000.6C1727.5 2001.27 1727.5 2001.93 1727.5 2002.6C1727.5 2003.27 1727.47 2003.93 1727.4 2004.6C1727.33 2005.27 1727.3 2005.93 1727.3 2006.6C1727.23 2007.2 1727.13 2007.83 1727 2008.5C1726.93 2009.17 1726.83 2009.83 1726.7 2010.5C1726.63 2011.17 1726.53 2011.8 1726.4 2012.4C1726.27 2013.07 1726.1 2013.7 1725.9 2014.3C1725.77 2014.97 1725.6 2015.6 1725.4 2016.2C1725.27 2016.8 1725.07 2017.4 1724.8 2018C1724.6 2018.6 1724.4 2019.2 1724.2 2019.8C1724 2020.4 1723.77 2021 1723.5 2021.6C1717.1 2036.1 1706.8 2041.8 1695.1 2045.9C1684 2046.7 1673.9 2046.1 1664 2038.6C1656.3 2032.6 1649.9 2023 1647.7 2011.2C1645.5 1999.7 1646.9 1987.7 1652 1977.9C1658.9 1964.5 1669.5 1959.4 1680.9 1956.6Z" fill="#1E1E22"/>
</svg>
